<?xml version="1.0" standalone="no"?>
<!DOCTYPE svg PUBLIC "-//W3C//DTD SVG 20010904//EN"
 "http://www.w3.org/TR/2001/REC-SVG-20010904/DTD/svg10.dtd">
<svg version="1.0" xmlns="http://www.w3.org/2000/svg"
 width="300.000000px" height="333.000000px" viewBox="0 0 300.000000 333.000000"
 preserveAspectRatio="xMidYMid meet">
<metadata>
Created by potrace 1.15, written by Peter Selinger 2001-2017
</metadata>
<g transform="translate(0.000000,333.000000) scale(0.100000,-0.100000)"
fill="#008000" stroke="none">
<path d="M290 3323 c-8 -2 -22 -7 -30 -10 -8 -4 -20 -5 -26 -4 -6 0 -24 -6
-40 -14 -16 -8 -35 -15 -41 -15 -7 0 -13 -4 -13 -10 0 -5 -6 -10 -13 -10 -14
0 -57 -41 -57 -55 0 -4 -7 -13 -17 -20 -9 -7 -17 -21 -18 -31 0 -11 -4 -25 -9
-32 -4 -6 -4 -12 0 -12 3 0 1 -7 -6 -15 -7 -8 -10 -21 -7 -30 4 -8 2 -17 -3
-20 -6 -4 -10 -348 -10 -916 0 -1004 -5 -940 63 -876 78 73 171 153 198 170
l29 19 0 348 0 347 92 79 c50 44 119 102 153 129 34 28 74 61 89 75 14 14 36
33 47 44 l21 18 -7 -233 c-6 -200 -5 -239 9 -270 16 -39 32 -49 75 -49 30 0
131 47 131 61 0 5 7 9 15 9 9 0 18 7 21 15 4 8 12 15 19 15 7 0 28 18 46 40
18 22 38 40 44 40 6 0 31 21 55 48 24 26 45 45 47 42 1 -3 37 31 80 75 42 44
81 79 86 77 5 -1 6 2 2 8 -3 5 9 19 27 30 19 11 44 33 56 50 13 16 29 30 37
30 8 0 22 12 31 26 37 56 144 83 178 45 16 -17 17 -40 15 -193 -6 -337 -3
-404 17 -412 9 -3 13 -10 10 -15 -15 -24 84 -29 135 -6 53 22 141 85 220 155
97 87 279 272 279 284 0 2 35 40 78 83 200 201 278 132 270 -239 l-3 -160 33
-29 c18 -16 43 -29 56 -29 33 0 87 21 110 42 11 10 24 18 29 18 5 0 31 23 58
51 l49 51 0 434 c-1 251 -5 436 -10 439 -5 3 -7 12 -4 19 3 8 0 17 -5 21 -6 3
-9 11 -5 16 3 6 -1 18 -9 27 -9 9 -17 24 -19 32 -2 8 -7 18 -13 22 -5 4 -10
11 -10 16 0 12 -70 82 -83 82 -6 0 -18 8 -27 17 -10 9 -25 17 -35 18 -10 1
-25 7 -34 14 -9 7 -36 15 -62 16 -25 2 -48 6 -51 9 -8 7 -2321 7 -2343 -1z
m1815 -99 c470 -5 526 -7 586 -24 115 -34 178 -100 199 -211 9 -45 10 -339 4
-662 l-3 -158 -47 -39 c-83 -68 -83 -68 -77 89 10 259 -39 387 -164 422 -86
24 -184 -28 -300 -157 -135 -152 -270 -288 -355 -360 -95 -79 -175 -131 -186
-119 -4 4 -5 125 -4 270 4 257 3 265 -18 303 -40 72 -130 99 -220 67 -66 -23
-137 -83 -409 -341 -109 -104 -261 -234 -301 -257 l-30 -18 1 93 c0 51 4 199
8 328 5 129 7 237 5 239 -3 3 -19 -10 -65 -51 -16 -16 -33 -28 -38 -28 -4 0
-21 -15 -38 -32 -16 -18 -42 -42 -57 -53 -59 -43 -82 -61 -126 -100 -25 -23
-70 -61 -100 -85 -30 -25 -71 -59 -90 -77 -19 -17 -47 -41 -62 -53 l-28 -21 0
-350 c0 -296 -2 -349 -14 -349 -8 0 -23 -11 -34 -25 -11 -14 -23 -25 -26 -25
-4 0 -5 366 -4 813 3 808 3 812 25 859 23 50 50 69 132 94 34 10 119 14 341
15 162 1 363 4 445 8 83 3 236 5 340 3 105 -1 424 -5 710 -8z"/>
<path d="M530 3090 c-8 -5 -22 -7 -31 -5 -9 3 -22 -1 -29 -10 -7 -8 -20 -15
-30 -15 -10 0 -23 -7 -30 -15 -6 -8 -15 -14 -18 -12 -4 1 -25 -15 -46 -35 -22
-20 -44 -34 -50 -31 -5 4 -6 1 -2 -6 5 -8 0 -14 -13 -18 -12 -3 -22 -9 -22
-14 -1 -5 -2 -14 -3 -19 0 -6 -8 -15 -16 -20 -8 -5 -11 -10 -6 -10 5 0 -1 -11
-14 -25 -13 -14 -24 -33 -25 -43 0 -9 -4 -23 -9 -30 -4 -6 -5 -12 -2 -12 2 0
1 -14 -4 -31 -13 -44 6 -121 38 -157 34 -38 99 -56 186 -50 131 8 294 125 357
256 33 68 37 163 9 225 -11 26 -25 47 -30 47 -5 0 -16 8 -26 17 -19 20 -158
29 -184 13z"/>
<path d="M2120 1902 c-19 -2 -41 -9 -48 -15 -8 -6 -22 -11 -32 -12 -23 -2
-116 -70 -124 -92 -4 -9 -9 -13 -13 -9 -8 8 -93 -73 -93 -89 0 -6 -14 -21 -31
-34 -16 -12 -34 -34 -39 -47 -6 -14 -15 -22 -20 -19 -6 4 -9 3 -8 -2 2 -7 -69
-78 -202 -201 -58 -53 -123 -79 -155 -62 -42 22 -57 95 -65 312 -7 204 -9 210
-55 250 -27 23 -134 24 -177 2 -50 -26 -186 -141 -273 -232 -27 -28 -55 -52
-62 -52 -6 0 -21 -14 -33 -30 -12 -17 -25 -28 -30 -25 -5 3 -23 -13 -41 -35
-17 -21 -35 -37 -39 -35 -4 3 -26 -15 -49 -40 -23 -25 -46 -45 -51 -45 -5 0
-21 -16 -36 -35 -14 -19 -32 -35 -39 -35 -7 0 -25 -16 -40 -35 -16 -19 -32
-32 -37 -29 -4 3 -8 1 -8 -4 0 -4 -20 -23 -45 -42 -25 -19 -45 -40 -45 -47 0
-7 -5 -13 -12 -13 -12 0 -13 -1 -97 -79 -30 -28 -57 -51 -61 -51 -4 0 -19 -18
-34 -41 l-27 -40 3 -353 c3 -331 4 -354 23 -381 11 -17 19 -33 18 -36 -4 -11
87 -100 96 -95 5 3 19 -2 32 -12 31 -24 88 -46 96 -38 3 3 13 0 21 -7 12 -9
253 -13 1096 -15 594 -1 1087 0 1095 3 9 4 47 8 86 10 70 3 122 18 202 55 24
11 45 19 48 18 2 -2 11 6 19 17 9 11 16 17 16 12 0 -4 16 7 35 24 19 18 32 36
29 40 -3 5 1 12 10 15 16 6 49 81 41 94 -3 5 0 12 6 15 5 4 9 21 8 39 -2 17 0
36 3 41 8 13 15 848 10 1186 l-2 125 -39 38 c-29 28 -44 36 -59 32 -12 -4 -94
-80 -184 -169 -179 -178 -252 -245 -287 -265 -92 -53 -101 -40 -101 141 -1
287 -34 409 -115 423 -16 2 -34 6 -40 7 -5 1 -26 1 -45 -1z m41 -102 c44 -24
52 -63 59 -290 5 -178 9 -221 24 -248 20 -37 62 -62 103 -62 32 0 138 48 168
76 11 11 34 30 50 42 17 13 93 85 170 160 l140 137 7 -65 c8 -78 8 -156 2
-715 -4 -459 -6 -487 -34 -552 -32 -73 -83 -109 -201 -144 -67 -19 -108 -22
-454 -29 -557 -12 -1719 -11 -1812 0 -160 20 -238 70 -267 170 -8 30 -15 71
-14 90 0 19 2 154 4 299 3 239 5 265 21 277 26 20 30 18 62 -26 48 -67 56
-121 53 -355 -3 -231 6 -298 42 -317 11 -6 22 -11 24 -10 1 1 17 -4 35 -11 50
-21 123 -21 159 0 30 18 94 81 194 193 74 83 238 240 250 240 2 0 17 13 34 28
23 22 30 40 35 85 11 100 -22 123 -86 61 -46 -45 -95 -50 -134 -14 l-25 23 0
325 0 325 42 46 c24 25 46 45 50 44 3 -1 22 15 41 36 20 22 38 37 40 35 3 -3
26 20 53 50 26 31 54 56 61 56 7 0 27 9 45 20 51 31 76 27 84 -14 3 -19 4 -38
1 -43 -10 -17 12 -285 28 -340 35 -120 77 -163 160 -163 51 0 157 46 202 88
13 12 26 22 29 22 10 0 216 207 259 261 25 30 73 78 106 105 33 27 66 54 73
60 10 10 85 52 94 54 2 0 12 -5 23 -10z"/>
</g>
</svg>
