<?xml version="1.0" encoding="UTF-8" standalone="no"?>
<svg
   version="1.0"
   width="304"
   height="334"
   viewBox="0 0 228 250.5"
   preserveAspectRatio="xMidYMid meet"
   id="svg139"
   sodipodi:docname="2.svg"
   inkscape:version="1.1 (c68e22c387, 2021-05-23)"
   xmlns:inkscape="http://www.inkscape.org/namespaces/inkscape"
   xmlns:sodipodi="http://sodipodi.sourceforge.net/DTD/sodipodi-0.dtd"
   xmlns="http://www.w3.org/2000/svg"
   xmlns:svg="http://www.w3.org/2000/svg">
  <defs
     id="defs143" />
  <sodipodi:namedview
     id="namedview141"
     pagecolor="#ffffff"
     bordercolor="#666666"
     borderopacity="1.0"
     inkscape:pageshadow="2"
     inkscape:pageopacity="0.0"
     inkscape:pagecheckerboard="0"
     inkscape:document-units="px"
     showgrid="false"
     units="px"
     width="304px"
     inkscape:showpageshadow="false"
     inkscape:zoom="1.3504346"
     inkscape:cx="321.00778"
     inkscape:cy="180.31233"
     inkscape:window-width="1366"
     inkscape:window-height="705"
     inkscape:window-x="-8"
     inkscape:window-y="-8"
     inkscape:window-maximized="1"
     inkscape:current-layer="g137" />
  <metadata
     id="metadata9">
Created by potrace 1.10, written by Peter Selinger 2001-2011
</metadata>
  <g
     transform="matrix(0.1,0,0,-0.1,0,2304)"
     fill="#000000"
     stroke="none"
     id="g137">
    <path
       d="m 1153.1476,23017.188 c -6.7786,-0.951 -27.8679,-2.281 -47.0741,-3.039 l -34.835,-1.521 10.9212,-5.129 c 7.1553,-3.42 10.7329,-6.271 10.9212,-8.55 0,-1.9 0.7532,-15.39 1.8829,-30.019 4.3309,-64.027 4.3309,-74.857 0.7532,-78.847 -1.8829,-2.09 -5.8372,-4.56 -8.8498,-5.32 -8.6618,-2.279 -5.0842,-5.131 6.0254,-4.94 44.6264,0.761 88.6879,3.421 90.5709,5.7 2.2594,2.849 0.5648,24.889 -2.2596,26.409 -0.7533,0.57 -2.0713,-1.33 -2.8245,-4.18 -2.2595,-10.07 -2.6361,-11.02 -6.5904,-13.488 -5.084,-3.231 -48.5806,-5.321 -52.5349,-2.47 -2.2594,1.518 -2.8244,7.029 -2.8244,28.118 v 26.219 l 18.8297,1.33 c 24.1021,1.709 27.868,0.95 31.2573,-6.46 1.5064,-3.42 3.7659,-6.459 5.0841,-6.839 2.6361,-0.761 3.0126,8.168 0.9414,28.689 -1.1297,13.489 -3.9543,15.958 -6.5903,5.699 -0.7532,-3.231 -2.6362,-6.649 -3.9543,-7.79 -3.7659,-3.229 -43.12,-6.269 -45.9445,-3.61 -3.0127,3.04 -4.1425,44.078 -1.3181,46.929 1.1299,1.139 11.8628,2.468 24.1021,3.23 24.6669,1.329 30.3158,-0.19 32.7637,-9.31 0.7532,-2.85 2.2595,-5.509 3.201,-5.89 2.0713,-0.38 3.5776,16.15 1.8829,22.798 -1.1298,4.942 -2.6361,4.942 -23.5371,2.281 z"
       id="path11"
       style="stroke-width:0.999999" />
    <path
       d="m 1290.6044,23009.778 c 0,-2.279 4.5192,-5.699 7.5319,-5.699 8.2851,0 8.4734,-8.74 1.6947,-60.799 -0.9415,-7.788 -2.6362,-21.089 -3.5777,-29.448 -2.4478,-21.089 -6.0256,-29.449 -12.8042,-29.449 -2.8245,0 -6.402,-0.759 -7.9085,-1.899 -2.4478,-1.522 -2.4478,-1.9 0,-2.661 4.8957,-1.898 38.4127,-6.841 45.7562,-6.841 8.85,0 9.0383,2.852 0.3766,5.701 -4.3308,1.521 -6.9669,3.801 -7.7201,6.651 -2.0713,8.168 2.0711,50.538 7.9085,80.747 1.5062,7.978 2.636,16.528 2.636,19.188 0,7.6 4.7075,12.539 13.3692,13.869 5.2723,0.76 7.3436,1.901 6.0254,3.23 -3.5776,3.611 -53.288,10.639 -53.288,7.41 z"
       id="path13"
       style="stroke-width:0.999999" />
    <path
       d="m 977.27825,22998.379 c -5.08398,-0.951 -11.48611,-2.471 -14.12219,-3.421 -6.77874,-2.468 -23.53715,-6.078 -35.58818,-7.599 -12.05103,-1.519 -13.55738,-4.75 -2.8244,-6.27 9.60314,-1.139 13.18077,-3.989 14.68713,-11.779 0.56492,-3.419 2.44788,-12.539 3.95424,-20.329 1.50636,-7.79 3.95424,-20.139 5.4606,-27.549 1.50635,-7.219 4.14254,-19.759 5.6489,-27.74 4.14255,-19.568 3.38931,-28.498 -3.01271,-31.537 -5.2723,-2.66 -10.35637,-7.791 -8.85002,-9.121 0.37662,-0.568 3.38942,0 6.40214,0.949 14.1223,4.561 29.18603,7.602 37.65945,7.602 9.79134,0 17.32329,2.849 12.05093,4.558 -1.50636,0.381 -6.02552,1.331 -9.97977,2.091 -4.51907,0.759 -8.09669,2.85 -9.97966,5.89 -3.20111,4.939 -7.72017,23.748 -9.60314,40.089 -0.94153,9.308 -0.75323,10.068 3.95424,12.158 7.34356,3.421 11.67441,0.382 40.48389,-28.499 l 25.4199,-25.268 9.415,1.14 c 11.1095,1.329 13.9338,3.419 9.4147,7.029 -9.603,7.791 -51.5933,50.349 -51.0284,51.868 0.3766,1.14 4.1426,4.561 8.6617,7.791 10.9212,7.979 15.2521,15.198 15.2521,26.217 0,11.589 -5.4607,22.61 -13.934,27.741 -7.5319,4.748 -25.42013,6.649 -39.54245,3.989 z m 20.14784,-11.59 c 6.77861,-3.8 10.16801,-8.169 12.05101,-15.959 4.5191,-19.38 -5.8372,-31.54 -30.50408,-35.149 -11.67442,-1.709 -16.00527,0.191 -16.00527,7.599 0,3.04 -1.31805,10.45 -2.82449,16.53 -1.50636,5.891 -2.82442,14.06 -2.82442,18.05 0,5.89 0.75314,7.22 4.33086,8.169 14.68712,3.23 30.5041,3.42 35.77639,0.76 z"
       id="path15"
       style="stroke-width:0.999999" />
    <path
       d="m 1390.4017,22996.669 c 0,-1.139 1.1299,-2.661 2.6364,-3.229 1.5062,-0.571 4.1424,-3.041 5.6487,-5.511 2.6363,-3.99 2.2597,-5.51 -2.6362,-19.189 -21.4658,-59.468 -34.8349,-88.727 -40.4838,-89.677 -15.8168,-2.279 -15.8168,-4.369 -0.3764,-8.741 6.4019,-1.899 14.8754,-4.748 18.6412,-6.268 3.766,-1.71 8.4733,-2.469 10.1681,-1.71 2.8244,1.14 2.4478,2.09 -3.0127,6.46 -5.4606,4.749 -6.0256,6.079 -5.0841,12.729 0.3766,4.18 3.9543,16.149 7.7202,26.6 3.766,10.449 8.8499,25.08 11.4861,32.299 8.2851,24.128 9.7916,27.739 11.4862,28.118 2.4478,0.57 12.9925,-63.269 14.8754,-90.436 1.1298,-17.1 3.9542,-28.499 6.7787,-27.549 0.7531,0.38 3.9543,3.609 6.7787,7.41 22.9722,30.208 66.2805,81.506 68.5401,81.506 2.4478,0 2.0713,-8.169 -0.9415,-25.649 -1.5064,-8.359 -4.1425,-24.129 -5.8372,-35.149 -1.6948,-11.02 -3.9542,-23.369 -5.2724,-27.36 -2.2595,-7.408 -3.2009,-8.358 -13.369,-12.538 -4.5192,-1.71 -5.0841,-2.469 -2.8245,-3.99 1.3182,-0.949 5.2724,-1.71 8.2851,-1.71 3.2011,0 12.0511,-2.091 19.7712,-4.75 18.6413,-6.079 21.0893,-6.079 13.5574,0.759 -8.4734,7.981 -8.285,12.92 2.6361,77.139 7.1553,42.178 7.9085,43.888 19.7712,45.788 7.5318,1.329 9.2265,5.129 2.4479,6.079 -1.883,0.19 -9.7915,1.9 -17.5116,3.61 l -13.7457,3.42 -4.1426,-4.94 c -2.0713,-2.659 -6.9669,-8.549 -10.5445,-13.108 -6.0256,-7.601 -16.0053,-19.761 -40.6722,-48.829 -9.9797,-11.78 -15.252,-13.11 -16.5703,-3.8 -0.3764,3.229 -1.8829,12.539 -3.0126,20.329 -1.318,7.791 -3.0127,22.039 -3.9542,31.349 -3.2011,30.209 -6.0255,41.418 -11.1095,43.887 -14.1224,6.651 -30.1277,10.261 -30.1277,6.651 z"
       id="path17"
       style="stroke-width:0.999999" />
    <path
       d="m 750.19215,22939.29 c -4.70736,-2.28 -10.92118,-5.128 -14.1223,-6.46 -17.135,-7.409 -85.11013,-42.178 -97.16116,-49.967 -16.19358,-10.259 -16.00526,-10.069 -38.97748,-24.319 -16.75841,-10.258 -26.36156,-16.53 -46.50937,-31.158 -9.03822,-6.65 -41.61358,-32.3 -51.21673,-40.469 -53.85291,-45.979 -100.17397,-91.196 -130.48985,-127.676 -12.05093,-14.818 -23.53704,-28.119 -25.23179,-29.827 -1.69467,-1.712 -6.21374,-7.41 -9.79146,-12.35 -3.76593,-4.94 -9.41483,-11.591 -12.61584,-14.63 -5.64891,-5.32 -6.40214,-5.32 -19.5829,-4.18 -15.06374,1.141 -25.23181,5.511 -32.57536,13.49 -6.59044,7.03 -6.77865,22.229 -0.37663,26.599 5.64891,3.99 3.57763,6.65 -4.89566,6.65 -7.15536,-0.191 -12.42764,-3.421 -17.88824,-11.4 -11.86273,-17.29 14.12231,-39.898 45.94443,-39.898 20.52444,0 21.27757,-3.23 6.40213,-25.08 -5.64889,-8.36 -10.35637,-15.578 -10.35637,-16.148 0,-0.571 -2.63609,-4.181 -5.6489,-8.172 -3.0127,-3.989 -5.6489,-7.598 -5.6489,-8.359 0,-0.569 -5.08397,-8.359 -11.2978,-17.099 -6.02551,-8.929 -13.74569,-21.089 -17.13501,-27.169 -3.20102,-6.079 -6.77874,-12.159 -7.90848,-13.488 -4.33085,-5.511 -15.62866,-27.739 -29.37435,-57.758 -23.91365,-52.628 -34.83494,-78.087 -40.48385,-95.378 -1.88296,-5.129 -3.76593,-10.259 -4.51906,-11.399 -2.07127,-3.609 -7.72022,-20.899 -7.90852,-24.319 0,-1.9 -1.12978,-6.08 -2.63615,-9.499 -5.46062,-13.3 -14.68716,-44.839 -13.55739,-46.739 1.69467,-2.66 16.19354,1.9 19.20628,6.27 1.50636,1.9 2.63621,5.129 2.63621,6.84 0,1.9 0.75312,3.8 1.69465,4.37 0.94144,0.76 12.23924,-2.279 25.04349,-6.65 19.20629,-6.461 24.85519,-7.599 33.14028,-6.84 13.55739,1.521 25.42002,7.6 33.70511,17.859 5.83721,7.031 7.34357,11.021 9.03832,22.23 2.44778,16.53 4.14245,17.1 22.78392,8.549 9.22652,-4.18 15.81686,-5.889 22.97221,-6.079 h 9.97976 l -1.12984,-10.64 c -2.07128,-17.669 3.95424,-21.469 16.94671,-10.83 4.89577,4.179 5.46069,5.131 3.2011,8.55 -5.46059,9.12 0.18831,22.989 9.60315,22.989 2.8244,0 6.96695,-2.47 10.54458,-6.079 5.08408,-5.32 5.83721,-7.41 5.83721,-16.339 0,-12.161 -4.14255,-20.14 -14.68712,-28.121 -3.76595,-3.039 -7.72018,-6.079 -8.85002,-6.838 -0.94144,-0.951 -5.83712,-4.561 -10.73288,-8.359 -8.2851,-6.081 -11.86273,-12.162 -7.15527,-12.162 6.96696,0 41.23698,22.611 50.65191,33.63 12.99247,14.629 12.80416,36.098 -0.37661,46.738 -6.02551,4.939 -8.28509,5.701 -19.7712,5.89 -9.22653,0 -14.49892,-0.951 -17.88824,-3.23 -2.82441,-1.711 -6.96695,-3.229 -9.22653,-3.229 -4.89567,0 -8.28509,1.329 -71.17624,26.028 -11.86272,4.56 -24.66688,9.5 -28.24452,11.019 -33.51689,12.73 -34.64672,14.06 -28.62121,26.219 2.25959,4.561 4.14255,8.931 4.14255,9.691 0,0.759 4.51916,11.019 9.97975,22.608 5.64891,11.779 11.67442,25.08 13.7457,29.829 4.51916,11.02 21.27755,39.898 22.97222,39.898 1.69466,0 30.8807,-16.718 33.14028,-18.998 2.07128,-2.091 0,-7.41 -17.13501,-42.749 -15.06375,-31.538 -16.7585,-38.758 -9.03833,-43.887 5.08409,-3.421 13.18087,-2.662 29.93928,2.85 8.6616,2.659 9.60313,3.608 10.16805,9.119 0.56482,5.319 -0.1883,6.269 -7.90847,10.259 -6.02552,3.04 -8.66172,5.51 -8.66172,8.17 0,2.279 3.76594,11.78 8.2851,21.09 4.51916,9.499 8.84991,18.617 9.41483,20.517 1.50636,4.942 6.77875,3.991 18.07654,-3.23 5.64891,-3.608 14.12222,-8.359 18.82968,-10.638 4.70737,-2.09 12.42754,-6.649 17.32332,-9.69 l 8.84991,-5.701 9.41483,3.422 c 5.2724,1.898 9.60315,4.369 9.60315,5.508 0,1.901 -2.44779,3.42 -23.53704,15.2 -5.08408,2.85 -14.68721,8.17 -21.27756,11.97 -6.59043,3.798 -16.00526,9.12 -21.08924,11.78 -5.08409,2.849 -12.42766,6.839 -16.3819,9.309 -3.95424,2.28 -12.61584,7.22 -19.39459,11.02 -12.99245,7.028 -18.82966,11.4 -18.82966,14.059 0,1.52 14.3106,24.129 34.08171,54.337 5.08409,7.601 9.22653,14.061 9.22653,14.63 0,2.09 15.81697,24.129 17.88824,24.89 3.0128,1.139 20.33612,-9.881 29.56266,-18.81 l 6.21381,-5.889 -6.59043,-1.521 c -22.78391,-5.699 -33.32859,-12.539 -39.3541,-25.079 -7.15526,-14.439 -4.70738,-28.118 6.77873,-38.378 18.82968,-16.909 54.22954,-12.73 66.28057,7.98 2.07127,3.419 4.89567,11.59 6.21372,18.05 1.31815,6.459 3.38942,11.969 4.70747,12.538 1.12974,0.57 9.22653,-3.799 17.69993,-9.69 8.4733,-5.89 15.81697,-10.639 16.57009,-10.639 4.33085,0.189 16.19358,5.7 16.19358,7.791 0,2.089 -24.10206,20.707 -31.06901,23.937 -3.57762,1.521 -21.08925,14.439 -24.66688,18.05 -2.07127,2.09 -2.44788,6.459 -1.69466,18.43 0.94143,15.2 1.12975,15.959 7.90839,22.23 9.03832,8.168 16.00527,8.548 24.47867,0.95 5.46059,-4.751 15.81696,-22.801 19.20627,-32.87 2.07128,-6.84 18.07646,-2.47 18.07646,4.749 0,3.801 -9.60314,20.9 -15.62855,27.929 -10.16808,11.781 -19.01809,15.961 -35.21156,15.961 -10.73299,0 -15.62866,-0.761 -20.33614,-3.612 -8.28499,-4.939 -14.49881,-15.198 -16.19347,-26.027 -0.75322,-4.75 -2.44789,-9.31 -3.95425,-9.88 -4.33084,-1.52 -31.069,17.858 -31.069,22.418 0,2.281 10.16806,15.769 24.66688,32.488 13.55739,15.77 29.93927,34.58 36.15299,41.801 18.26485,21.088 92.26559,94.044 95.46661,94.044 2.07127,0 20.71263,-21.847 20.71263,-24.128 0,-0.949 -4.14254,-3.42 -9.22652,-5.7 -12.42765,-5.13 -17.13502,-12.918 -17.13502,-27.549 0,-5.889 -0.75322,-11.399 -1.88296,-11.969 -0.94153,-0.571 -7.34356,-1.521 -13.934,-2.091 -24.47858,-1.709 -38.97749,-13.488 -40.29554,-32.869 -0.75323,-9.498 -0.18831,-11.589 5.46059,-19.758 11.86272,-17.1 33.89352,-25.459 73.24751,-27.929 25.0435,-1.52 28.24452,-1.139 28.24452,3.04 0,3.798 -1.50636,4.181 -28.43283,7.03 -27.30306,3.039 -41.80188,8.93 -51.02841,20.519 -7.90848,9.879 -8.66171,18.24 -2.44789,28.119 10.16807,16.529 34.83495,18.24 34.83495,2.47 0,-3.99 4.51916,-9.879 7.72017,-9.879 1.12974,0 3.57763,0.949 5.64891,1.9 3.38931,1.898 3.57763,3.608 2.44788,24.318 -1.31814,25.838 0.18831,31.73 9.03823,35.338 5.64889,2.47 6.77864,2.281 18.26485,-3.799 9.60314,-5.13 14.49881,-6.459 22.7839,-6.459 16.94671,0 33.5168,9.879 42.55512,25.649 1.88297,3.229 2.07127,3.229 6.21372,-1.141 2.25959,-2.471 7.15536,-8.739 10.73299,-14.06 11.1095,-16.72 12.61584,-17.858 20.71263,-18.809 13.934,-1.901 13.7457,1.52 -2.07127,23.749 -7.90848,10.83 -17.135,24.13 -20.90094,29.26 -11.86272,17.099 -19.77121,28.309 -32.01045,45.218 -6.59043,9.118 -12.05102,17.668 -12.05102,18.999 0,2.28 27.86788,22.609 37.65934,27.359 1.50645,0.759 6.40213,3.8 10.54468,6.65 4.33085,2.849 8.28509,5.319 8.84991,5.319 0.56493,0 6.02551,3.421 12.23935,7.6 6.21381,3.99 16.57008,10.069 22.97221,13.489 13.74569,7.03 12.99246,7.41 24.47857,-14.059 7.34366,-14.25 7.72018,-15.199 4.51916,-18.619 -1.69466,-1.901 -15.25204,-10.83 -29.93916,-19.951 -14.87553,-8.927 -29.75096,-18.618 -33.14029,-21.659 -5.6489,-4.749 -6.21382,-5.698 -4.51915,-10.64 3.76593,-10.828 36.15298,-22.607 41.61358,-15.197 2.44788,3.608 1.50645,10.069 -2.07118,14.44 -6.21381,7.598 -5.27238,10.639 5.08398,17.288 5.4606,3.61 10.92119,6.841 11.86272,7.22 1.12975,0.38 5.46059,3.229 9.79145,6.08 14.12222,9.69 11.86272,11.97 36.90622,-36.289 4.89567,-9.5 10.16796,-17.1 12.80416,-18.429 5.4606,-2.85 14.12231,-3.23 15.81696,-0.571 0.56482,0.951 -3.01281,9.31 -7.90848,18.43 -13.36907,25.27 -28.62112,54.528 -29.56265,56.618 -0.37661,1.139 -1.31805,3.229 -1.88297,4.75 -0.56492,1.52 -2.6361,5.509 -4.51916,8.55 -10.54458,17.288 -17.51153,32.108 -16.94671,35.528 0.56492,4.56 19.5829,15.77 30.12757,17.67 6.02552,1.139 6.96695,0.76 10.16797,-5.131 2.07127,-3.419 5.6489,-11.02 8.09678,-16.719 2.4479,-5.699 7.72018,-17.479 11.67442,-26.219 4.14255,-8.741 7.34357,-16.149 7.34357,-16.72 0,-0.759 7.15536,-16.148 20.14781,-43.696 1.50636,-3.422 4.89568,-7.03 7.34356,-8.172 5.64891,-2.468 15.81697,-2.849 15.81697,-0.379 0,0.948 -4.14255,10.45 -9.22652,21.279 -16.38189,35.339 -22.78401,49.398 -22.78401,50.158 0,0.57 -3.20103,7.98 -7.34358,16.529 -16.38177,35.719 -17.69993,40.279 -11.48611,43.319 1.50636,0.759 6.40214,3.039 10.733,4.939 9.60314,4.37 10.16795,7.221 2.07127,12.16 -7.72018,4.75 -9.79145,4.75 -20.33614,-0.191 z m -182.2714,-148.384 c 5.46061,-7.598 10.73289,-15.2 11.86264,-16.908 0.94153,-1.521 3.76602,-5.89 6.02551,-9.502 5.27238,-7.978 5.27238,-9.498 0.56492,-25.076 -4.70747,-15.581 -10.16806,-20.331 -22.59561,-20.331 -7.72018,0 -9.79145,0.95 -16.19358,7.22 -3.95424,4.18 -11.48611,12.921 -16.75839,19.57 -5.08408,6.46 -11.2978,14.059 -13.55739,16.72 -6.02551,6.269 -5.46059,8.548 3.76594,16.149 16.00527,13.49 32.38705,25.648 34.64663,25.648 1.12975,0.19 6.59044,-6.079 12.23933,-13.49 z m -190.36828,-258.2 c 1.50645,-2.849 1.50645,-7.218 -0.18831,-16.528 -3.201,-19.19 -5.27228,-24.32 -12.61585,-30.968 -6.0255,-5.322 -7.72017,-5.892 -15.44035,-4.942 -10.35636,1.141 -19.01798,9.501 -19.01798,18.619 0,11.971 11.86273,27.931 25.42011,34.2 10.35628,4.939 19.01798,4.749 21.84238,-0.381 z m -168.90232,-214.311 c 4.33085,-1.899 9.41483,-3.99 11.48611,-4.56 10.54458,-3.04 21.08925,-7.79 24.85518,-11.208 2.44789,-2.282 6.21383,-9.881 8.4734,-16.911 3.95424,-12.729 3.95424,-13.108 0.56482,-20.519 -1.88297,-4.18 -5.27228,-8.93 -7.72016,-10.639 -5.46061,-3.61 -17.32332,-3.61 -26.54985,-0.191 -3.95425,1.33 -14.68713,4.941 -23.72545,7.979 -23.91365,7.601 -23.16053,6.461 -17.32332,24.511 9.60314,29.639 12.42764,35.147 17.69993,35.147 2.44788,0 8.09679,-1.519 12.23934,-3.609 z"
       id="path19"
       style="stroke-width:0.999999" />
    <path
       d="m 1212.2729,22938.911 c -0.5649,-1.52 -0.7532,-4.939 -0.3765,-7.41 0.3765,-3.609 2.0712,-4.56 9.9797,-5.699 12.4275,-1.521 31.822,-1.9 35.5881,-0.381 3.5775,1.332 3.9542,8.93 0.5648,11.781 -1.318,1.33 -12.051,2.659 -23.5371,3.419 -18.0765,1.14 -21.0893,0.951 -22.219,-1.71 z"
       id="path21"
       style="stroke-width:0.999999" />
    <path
       d="m 1651.1932,22908.702 c -1.8831,-1.139 -6.214,-4.56 -9.415,-7.41 -3.201,-3.039 -11.8627,-10.259 -19.2063,-16.338 -7.3435,-6.081 -20.7127,-17.48 -29.9392,-25.27 -9.0382,-7.79 -19.2063,-16.34 -22.5956,-19.001 -3.2011,-2.658 -9.7915,-7.978 -14.4988,-11.968 -6.2139,-5.13 -11.2978,-7.788 -17.7,-8.738 -8.6617,-1.522 -8.85,-1.522 -4.3308,-3.801 2.6362,-1.142 11.1095,-5.51 18.8296,-9.69 7.7203,-4.179 14.3107,-7.6 14.4989,-7.6 1.883,0 0,5.7 -2.2595,7.6 -5.2723,4.37 -3.2011,10.26 7.1552,20.519 5.4606,5.511 11.2978,9.88 13.1809,9.88 3.766,0 27.1146,-10.829 28.6212,-13.49 0.7531,-0.95 2.6361,-1.711 4.3307,-1.711 1.6947,-0.188 5.4607,-2.088 8.2851,-4.368 4.8958,-4.18 5.084,-4.37 3.5776,-19.19 -1.5063,-16.909 -4.519,-21.278 -12.8042,-18.049 -2.8245,1.14 -5.8372,1.14 -7.7202,0 -2.8244,-1.709 -2.8244,-1.9 0.565,-3.041 2.0712,-0.758 5.0839,-1.899 6.5904,-2.847 2.6362,-1.521 36.9061,-19.191 40.1072,-20.52 3.3894,-1.711 0.7531,5.129 -3.5776,9.31 -4.8957,4.369 -4.8957,4.939 -3.9543,22.608 3.9543,65.548 5.2723,84.735 6.967,101.076 2.2596,20.519 1.318,25.269 -4.7073,22.039 z m -15.6288,-45.218 c -0.9414,-24.888 -2.4479,-36.098 -5.084,-36.098 -3.3893,0 -32.0105,14.628 -34.6466,17.859 -1.6947,2.089 1.5063,5.7 16.0052,18.049 9.9797,8.74 19.5829,15.389 21.2775,15.009 2.4479,-0.57 3.0129,-3.039 2.4479,-14.819 z"
       id="path23"
       style="stroke-width:0.999999" />
    <path
       d="m 1731.2194,22834.225 c -19.2064,-4.938 -35.9648,-18.808 -44.6264,-37.048 -3.9543,-8.169 -5.2724,-14.25 -5.8373,-26.218 -0.7533,-14.252 -0.1882,-16.341 5.2723,-28.121 3.201,-6.839 8.4734,-15.39 11.4861,-18.808 12.051,-13.87 42.5552,-33.438 51.97,-33.438 3.2011,0 7.1553,3.988 15.6286,15.768 15.4404,21.28 16.9467,22.609 22.5956,21.088 13.934,-3.609 14.3106,0.382 0.7533,8.741 -5.8372,3.61 -15.2521,10.451 -20.901,15.01 -12.8042,10.259 -16.9467,8.359 -8.2851,-3.611 5.2723,-7.41 5.4606,-8.358 3.2011,-13.11 -4.7074,-9.118 -19.9595,-28.688 -22.2191,-28.688 -5.4605,0 -21.8424,9.5 -28.4328,16.53 -7.5318,7.979 -14.4989,24.889 -14.4989,35.339 0,19.189 17.5116,49.016 35.7765,60.417 12.0509,7.789 30.3157,9.88 45.1912,5.319 4.1426,-1.33 12.2394,-6.649 18.0766,-11.778 l 10.5445,-9.69 -1.1298,-12.919 c -0.7532,-7.03 -0.5648,-12.921 0.3767,-12.921 1.883,0 9.7914,10.45 9.7914,12.921 0,0.95 1.3181,2.848 3.0128,4.18 5.8372,4.938 2.2596,11.588 -12.0511,22.798 -14.4988,11.019 -20.336,13.679 -38.9774,18.239 -13.1808,3.041 -24.8552,3.041 -36.7178,0 z"
       id="path25"
       style="stroke-width:0.999999" />
    <path
       d="m 1853.6123,22772.668 c 0,-0.761 1.6946,-4.56 3.7659,-8.551 4.5191,-8.359 3.9543,-11.589 -3.3893,-19.949 -2.8245,-3.23 -10.5447,-12.54 -17.3233,-20.708 -14.4989,-17.48 -25.2319,-29.83 -39.919,-44.839 l -10.5446,-11.019 -5.8372,2.849 c -6.4022,3.42 -11.486,3.99 -11.486,1.141 0,-0.95 1.5062,-2.66 3.3892,-3.61 1.883,-0.95 10.9213,-8.741 20.3362,-17.29 13.9339,-12.729 16.9466,-14.629 17.3232,-11.4 0.3766,2.091 -0.7531,5.701 -2.2596,7.981 -4.3308,6.078 -3.7659,7.789 3.7659,17.099 3.766,4.37 9.7916,11.969 13.5574,16.529 15.6287,19.189 49.8987,56.998 52.5349,58.137 1.6947,0.571 5.8373,0 9.2265,-1.329 4.8957,-1.71 6.967,-1.71 8.6618,0 1.6947,1.711 1.318,2.469 -1.3182,3.419 -4.1425,1.71 -5.4606,2.852 -23.9137,19.76 -14.3105,13.11 -16.5701,14.818 -16.5701,11.78 z"
       id="path27"
       style="stroke-width:0.999999" />
    <path
       d="m 1132.0584,22736.758 c -3.766,-0.569 -5.6489,-2.28 -6.402,-5.509 -1.3182,-5.319 2.4477,-56.617 4.8956,-68.206 0.9414,-4.181 2.6361,-13.11 3.5776,-19.95 3.766,-26.029 8.2851,-42.75 15.2521,-58.138 7.3435,-16.148 15.0637,-16.34 23.5371,-0.761 l 5.6489,10.451 -0.3766,37.998 c -0.1883,22.609 -1.5064,46.358 -3.201,58.708 -1.6946,11.399 -3.0127,25.65 -3.0127,31.538 0,5.89 -0.9416,11.589 -2.2596,12.919 -2.2595,2.28 -25.6085,2.851 -37.6594,0.95 z"
       id="path29"
       style="fill:#008000;stroke-width:0.999999" />
    <path
       d="m 1212.8378,22736.758 c -1.6947,-2.849 -3.5777,-43.128 -3.5777,-72.767 0.1883,-38.568 3.7659,-122.543 6.2138,-140.213 0.9415,-7.6 1.6947,-20.901 1.6947,-29.45 0.1883,-8.549 0.9415,-22.039 1.8829,-29.828 0.9417,-7.79 2.6363,-24.51 3.5777,-37.049 2.0713,-23.94 4.3308,-47.309 7.9084,-80.746 1.3182,-11.021 2.6363,-23.75 3.0129,-28.5 1.318,-15.578 6.402,-55.668 11.1095,-85.498 9.0381,-58.326 12.8042,-73.145 18.6414,-73.145 2.8245,0 4.1425,2.279 6.0255,11.4 8.8499,41.037 9.7915,322.605 1.5063,420.833 -0.9414,10.448 -4.3308,74.856 -5.6488,104.496 -1.1298,24.888 -3.2011,37.808 -6.214,38.759 -6.5902,1.708 -45.1911,3.229 -46.1326,1.708 z"
       id="path31"
       style="fill:#008000;stroke-width:0.999999" />
    <path
       d="m 1070.297,22729.539 c -48.0158,-7.41 -50.8401,-8.169 -50.8401,-13.488 0,-1.522 5.084,-11.4 11.2978,-21.851 6.2137,-10.449 11.2978,-19.759 11.2978,-20.709 0,-0.949 1.1296,-2.849 2.4479,-4.18 1.318,-1.329 6.4019,-8.929 11.1095,-16.718 11.6743,-19.38 19.5828,-31.351 23.1605,-34.199 1.5063,-1.33 2.8243,-3.42 2.8243,-4.561 0,-1.139 4.1426,-6.839 9.2266,-12.539 12.9925,-14.629 14.4989,-12.73 13.934,18.619 -0.1884,13.3 -1.3181,31.349 -2.2595,40.278 -0.9415,8.929 -2.8245,24.32 -3.9543,34.2 -2.6361,23.94 -5.8372,36.858 -9.4149,37.237 -1.5064,0.191 -9.9796,-0.758 -18.8296,-2.089 z"
       id="path33"
       style="fill:#008000;stroke-width:0.999999" />
    <path
       d="m 1305.1033,22727.259 c -1.3181,-2.28 -3.0128,-18.81 -4.3308,-43.318 -0.5649,-12.54 -1.5064,-23.369 -1.883,-23.939 -1.8829,-3.04 -0.9415,-86.068 0.9415,-100.316 2.6361,-17.67 7.1553,-31.161 10.168,-30.018 2.8246,0.948 6.2138,18.808 8.6617,45.978 1.1298,12.539 2.8244,29.639 3.7659,37.998 0.9414,8.36 2.8244,26.41 3.9542,39.898 1.1299,13.679 3.0128,31.539 3.9543,39.898 1.1298,8.36 2.4478,18.621 3.0128,22.801 l 0.9413,7.789 -11.1094,2.279 c -12.8041,2.66 -16.9468,2.85 -18.0765,0.95 z"
       id="path35"
       style="fill:#008000;stroke-width:0.999999" />
    <path
       d="m 1362.3456,22711.11 c -5.8373,-18.81 -14.8754,-76.947 -16.1936,-106.016 -1.5064,-29.069 -0.5648,-30.968 10.733,-25.079 13.3691,7.22 26.5498,15.579 31.6337,20.328 2.6363,2.281 6.5905,5.321 8.8501,6.46 4.3308,2.09 48.9572,37.62 56.1125,44.459 2.0713,2.089 9.4149,8.36 16.5702,14.06 6.9669,5.7 12.6158,11.208 12.6158,12.159 0,2.66 -18.6414,10.45 -49.7104,20.709 -28.8095,9.31 -62.3262,18.999 -66.4689,18.999 -1.1296,0 -3.0127,-2.848 -4.1424,-6.079 z"
       id="path37"
       style="fill:#008000;stroke-width:0.999999" />
    <path
       d="m 1921.0226,22712.061 c 3.3893,-6.461 4.3308,-16.719 1.883,-19.951 -3.3893,-4.56 -48.7689,-45.408 -65.1507,-58.706 -14.4989,-11.78 -18.0765,-12.922 -24.102,-8.361 -3.5777,2.659 -10.1681,3.8 -10.1681,1.711 0,-1.331 28.6211,-33.821 30.5041,-34.58 2.4479,-1.139 1.6947,5.13 -1.5063,11.4 l -3.0128,5.889 21.6541,21.09 c 28.9978,28.309 36.9062,35.719 44.4381,41.039 l 6.4022,4.559 -1.3183,-8.549 c -4.8956,-28.499 -10.168,-56.999 -11.6742,-60.608 -0.565,-1.521 -1.8831,-7.03 -2.6362,-12.349 -2.4479,-14.44 -6.967,-37.049 -9.6032,-45.979 -1.1298,-4.559 -1.6947,-9.499 -0.9416,-11.02 1.5066,-3.99 6.9671,-1.139 17.3235,9.31 13.369,13.299 23.7254,22.609 41.9902,38.379 39.9189,34.009 40.4838,34.39 48.3923,28.309 4.1425,-3.041 10.168,-3.8 10.168,-0.95 0,0.95 -3.9543,5.889 -8.8499,10.828 -5.0841,4.941 -12.2394,12.921 -16.0053,17.481 -7.9085,9.31 -11.1096,9.118 -7.3435,-0.38 4.8957,-12.539 4.8957,-12.349 -7.532,-24.7 -17.6998,-17.477 -47.2625,-44.079 -48.5806,-43.887 -2.4478,0.189 -2.2595,7.979 0.3767,20.709 1.6946,7.219 4.3308,19.759 5.8371,27.548 5.6489,29.45 8.85,45.029 11.4861,55.478 1.5064,6.08 2.8245,11.591 2.8245,12.54 0,1.71 -23.537,26.979 -25.2319,26.979 -0.753,0 -0.5647,-1.52 0.3767,-3.229 z"
       id="path39"
       style="stroke-width:0.999999" />
    <path
       d="m 950.72841,22702.94 c -20.14773,-5.699 -37.09452,-11.779 -51.40503,-18.429 -6.59044,-2.85 -13.18077,-5.32 -14.49892,-5.32 -1.50635,0 -4.89567,-2.09 -7.72018,-4.369 l -5.27227,-4.56 15.06373,-15.01 c 37.84774,-38.378 75.13048,-58.517 137.83346,-74.857 4.519,-1.141 14.1223,-2.849 21.6541,-3.8 7.5319,-0.949 18.0765,-2.279 23.537,-3.04 5.649,-0.759 9.7915,-0.57 9.7915,0.379 0,0.95 -9.9797,11.971 -22.219,24.512 -21.0892,21.847 -45.003,49.587 -51.5933,60.036 -1.6948,2.66 -4.3309,6.079 -5.6489,7.6 -1.50646,1.52 -8.28511,11.399 -15.25217,22.229 -8.4733,12.92 -13.74559,19.38 -15.81686,19.189 -1.88297,0 -10.16806,-2.09 -18.45316,-4.56 z"
       id="path41"
       style="fill:#008000;stroke-width:0.999999" />
    <path
       d="m 1510.7236,22657.342 c -17.8882,-6.65 -53.0999,-29.068 -93.0187,-59.278 -35.2116,-26.598 -48.769,-37.429 -62.5145,-49.588 -9.2267,-7.978 -10.5448,-10.069 -8.8501,-12.92 4.8958,-8.169 27.1147,-10.449 51.5934,-5.509 19.3945,4.18 23.5371,5.509 46.1327,15.01 32.952,14.059 71.5529,37.808 96.4081,59.086 23.537,20.329 30.5042,27.171 30.6924,29.83 0,1.71 -2.8245,4.559 -6.0255,6.269 -40.8604,21.28 -41.8019,21.659 -54.4178,17.1 z"
       id="path43"
       style="fill:#008000;stroke-width:0.999999" />
    <path
       d="m 814.77805,22644.613 c -5.46068,-3.041 -9.97975,-6.65 -9.97975,-8.17 0,-2.85 27.11477,-53.199 37.09452,-68.778 3.95424,-6.079 8.09669,-12.919 9.03823,-15.009 5.83722,-12.92 62.89115,-103.356 77.76668,-123.495 9.41482,-12.919 17.32331,-24.319 17.32331,-25.269 0,-0.951 1.31805,-2.851 3.01272,-4.18 1.69465,-1.33 10.73297,-12.729 20.14781,-25.08 9.41484,-12.54 26.92647,-32.677 38.78923,-45.027 30.504,-30.969 50.6517,-41.799 72.3059,-38.949 8.2851,1.14 14.4989,4.749 14.4989,8.359 0,0.951 -4.1425,7.22 -9.4149,14.06 -5.084,6.84 -9.4148,13.11 -9.4148,13.68 0,0.76 -2.4478,4.37 -5.6489,8.171 -3.0128,3.798 -12.6158,16.528 -21.0893,27.928 -14.1224,18.999 -26.7382,35.338 -35.2115,45.787 -1.883,2.089 -6.967,8.931 -11.4861,15.201 -4.51909,6.078 -14.49885,19.378 -22.40734,29.258 -7.90849,9.88 -16.00526,20.328 -18.07654,23.179 -15.81688,21.659 -44.24978,58.138 -46.69757,60.228 -1.88296,1.329 -3.20112,3.419 -3.20112,4.559 0,1.139 -2.44788,4.751 -5.46059,7.98 -2.8245,3.041 -19.95951,25.458 -37.84765,49.4 -35.58816,47.876 -39.16579,52.435 -42.17851,52.056 -1.12983,-0.189 -6.59043,-2.85 -11.86273,-5.889 z"
       id="path45"
       style="fill:#008000;stroke-width:0.999999" />
    <path
       d="m 762.05488,22612.124 c -6.40213,-4.369 -16.19357,-10.83 -22.03079,-14.44 -5.64889,-3.609 -10.73287,-7.598 -11.29779,-8.93 -1.31806,-3.419 3.20111,-13.87 11.67442,-26.977 3.76592,-5.892 7.34355,-11.78 7.90848,-12.921 5.08398,-11.02 74.75386,-99.365 101.86863,-129.004 47.07427,-51.868 60.06674,-64.979 86.9932,-87.778 8.47339,-7.219 19.3946,-12.729 22.5957,-11.4 10.16797,3.99 -4.89577,31.92 -53.2881,98.417 -37.28283,51.299 -67.22199,96.137 -93.01871,139.265 -10.92119,18.619 -19.95941,34.009 -19.95941,34.577 0,3.042 -15.81697,27.36 -17.69993,27.171 -1.12985,0 -7.34356,-3.611 -13.7457,-7.98 z"
       id="path47"
       style="fill:#008000;stroke-width:0.999999" />
    <path
       d="m 1585.8541,22607.564 c -6.4022,-6.081 -12.2394,-11.589 -12.8041,-12.159 -2.8246,-3.231 -41.0489,-30.21 -42.7435,-30.21 -0.565,0 -4.7075,-2.469 -9.2266,-5.509 -7.3437,-5.13 -36.5297,-19.95 -53.4764,-27.359 -9.6031,-4.37 -44.438,-16.34 -56.489,-19.569 -11.2979,-3.04 -11.2979,-3.04 -37.6595,-8.551 -23.5371,-4.748 -36.1529,-11.398 -45.1912,-23.558 -12.6159,-17.099 -13.7456,-22.798 -14.6872,-75.427 -0.5649,-41.608 -0.3767,-47.499 2.6362,-53.768 4.1426,-9.119 9.7914,-11.209 22.9722,-8.361 13.7457,2.851 25.985,10.451 72.1177,45.03 17.3234,12.918 31.8223,25.269 66.8455,56.237 17.8882,15.959 116.9324,115.705 135.3856,136.605 7.3435,8.171 13.1806,16.149 13.1806,17.859 0,1.711 -1.6946,3.99 -3.7659,5.131 -2.0712,1.139 -6.7786,4.369 -10.3562,7.029 -11.8627,8.929 -13.3692,8.741 -26.7382,-3.42 z"
       id="path49"
       style="fill:#008000;stroke-width:0.999999" />
    <path
       d="m 893.29786,22610.034 c 0,-0.381 5.27229,-7.791 11.86273,-16.719 6.40202,-8.741 15.44034,-21.471 20.14772,-27.93 4.70746,-6.65 10.54467,-14.439 12.99255,-17.099 2.4478,-2.66 6.40204,-7.98 8.84992,-11.589 2.44789,-3.61 13.36909,-18.239 24.29027,-32.299 10.92129,-14.06 24.85529,-32.109 31.06905,-40.088 6.2138,-7.981 12.2393,-15.769 13.5574,-17.099 1.3181,-1.522 7.5318,-8.931 13.5573,-16.72 31.4456,-39.709 74.189,-83.786 81.3444,-83.786 1.3179,0 4.1425,2.279 5.8371,5.129 3.0129,4.56 3.3892,10.07 3.3892,45.217 0,54.719 -6.0253,95.758 -17.6997,120.077 -6.7788,14.059 -11.2979,17.289 -25.985,19.569 -62.3263,9.12 -111.09517,27.359 -159.86411,60.038 -19.01797,12.918 -23.34883,15.389 -23.34883,13.299 z"
       id="path51"
       style="fill:#008000;stroke-width:0.999999" />
    <path
       d="m 2031.3646,22575.834 1.3181,-10.26 -12.8042,-9.689 c -6.9669,-5.13 -15.252,-11.398 -18.2649,-13.869 -14.8754,-11.779 -57.0539,-39.517 -60.2549,-39.517 -1.8829,0 -6.402,2.089 -9.7915,4.748 -12.2393,9.5 -11.2978,4.75 3.0128,-14.249 6.2138,-8.169 11.2978,-15.579 11.2978,-16.148 0,-2.091 8.2851,-12.35 9.7914,-12.35 0.9416,0 1.1298,4.37 0.3766,9.69 -1.318,9.309 -1.1297,9.688 5.8373,15.579 11.4861,9.69 62.5145,46.167 72.6825,51.867 2.2597,1.33 4.8958,3.229 6.0256,4.371 3.3893,3.419 7.9084,2.469 13.7457,-2.661 5.4605,-4.749 10.1681,-6.269 10.1681,-3.23 0,0.95 -4.7076,7.601 -10.5448,14.819 -5.8372,7.221 -11.1095,14.44 -11.8627,15.96 -3.0128,6.84 -8.8499,15.2 -10.3563,15.2 -0.7533,0 -0.9414,-4.56 -0.3766,-10.261 z"
       id="path53"
       style="stroke-width:0.999999" />
    <path
       d="m 1638.7655,22560.255 c -10.7329,-9.118 -26.3616,-22.609 -34.6466,-30.208 -8.2851,-7.599 -21.8425,-19.569 -30.1275,-26.789 -8.2851,-7.22 -18.8297,-16.529 -23.5373,-20.71 -37.2826,-34.007 -56.3006,-51.677 -72.4942,-67.447 -51.2169,-50.157 -69.105,-67.257 -82.6624,-79.986 -32.9519,-30.78 -52.1582,-53.199 -61.1965,-71.437 -4.3308,-8.741 -5.2724,-24.89 -1.883,-31.159 3.2011,-6.271 18.6414,-15.01 25.985,-15.01 24.1019,0 56.4892,23.749 95.0901,69.917 8.0965,9.689 17.8881,20.898 21.654,24.89 3.766,3.989 11.2978,12.159 16.7585,18.429 5.6489,6.079 17.5116,19.379 26.5498,29.258 9.2266,9.882 30.8808,33.819 48.3924,53.199 40.2955,44.458 71.9294,77.896 102.8101,108.865 17.5116,17.859 23.9137,25.269 23.1606,27.548 -1.3182,3.422 -29.751,26.98 -32.5754,26.98 -0.7533,0 -10.3564,-7.41 -21.2776,-16.34 z"
       id="path55"
       style="fill:#008000;stroke-width:0.999999" />
    <path
       d="m 656.60863,22530.426 c -10.35638,-10.068 -10.54468,-10.638 -7.90849,-14.819 3.57763,-5.699 13.55738,-37.808 17.51163,-56.807 1.69466,-8.17 3.0127,-22.8 3.0127,-34.2 0,-30.018 -6.40213,-46.738 -21.46587,-57.187 -3.76593,-2.469 -6.77863,-5.13 -6.77863,-5.889 0,-5.13 22.21898,-9.69 48.95714,-9.881 17.13502,-0.189 20.90105,0.381 28.80943,4.37 5.649,2.661 10.92129,7.221 13.934,11.971 4.51916,6.648 5.08408,9.309 4.89577,24.889 0,22.798 -3.95424,36.858 -19.5829,71.056 -9.97976,21.66 -41.99019,71.817 -48.01571,75.238 -1.88296,1.139 -5.6489,-1.331 -13.36907,-8.741 z"
       id="path57"
       style="fill:#008000;stroke-width:0.999999" />
    <path
       d="m 718.93485,22526.436 c -0.94144,-2.47 17.69993,-41.418 34.27012,-71.436 34.83494,-63.648 77.95488,-149.713 99.98566,-199.492 1.50636,-3.61 3.57764,-7.98 4.33075,-9.691 0.75324,-1.519 5.4607,-13.11 10.35638,-25.649 13.74569,-34.769 20.14781,-56.047 23.53715,-78.656 1.12972,-7.79 2.82439,-15.579 3.57761,-17.099 1.88297,-3.421 23.91376,-7.22 43.87317,-7.41 21.65418,-0.191 44.06147,5.889 54.60616,14.82 10.92115,9.309 18.26485,26.788 18.45305,43.698 0,8.17 -5.2723,36.098 -7.5319,40.468 -1.1297,1.9 -1.8829,4.56 -1.8829,6.27 0,2.85 -2.4478,8.931 -11.48614,28.878 -3.01271,6.65 -5.4606,12.73 -5.4606,13.679 0,0.761 -8.66162,7.41 -19.20629,14.631 -76.26022,51.107 -147.62478,121.406 -204.8671,201.771 -16.00518,22.229 -28.62112,39.329 -32.57537,43.699 -4.33086,4.751 -8.47331,5.509 -9.97975,1.519 z"
       id="path59"
       style="fill:#008000;stroke-width:0.999999" />
    <path
       d="m 1718.98,22520.927 c -15.817,-8.739 -76.4486,-64.977 -94.525,-87.396 -9.0382,-11.4 -11.8627,-16.53 -11.4862,-20.139 0.565,-5.32 3.3894,-5.701 15.6286,-3.041 10.1681,2.47 64.0211,29.83 91.8889,46.738 4.8958,3.041 9.2265,5.511 9.7916,5.511 0.3765,0 4.5191,2.66 9.0381,5.699 4.7076,3.231 9.2267,5.7 9.9798,5.7 3.0128,0.191 10.168,7.219 10.168,10.069 0,2.85 -28.4327,34.579 -33.7052,37.239 -1.8829,1.141 -4.519,0.951 -6.7786,-0.38 z"
       id="path61"
       style="fill:#008000;stroke-width:0.999999" />
    <path
       d="m 2081.4515,22502.688 c 0,-5.131 -1.1295,-10.069 -2.2594,-11.21 -9.0382,-7.219 -82.4741,-45.028 -91.5124,-46.928 -5.2723,-1.139 -7.7201,-0.379 -14.6872,4.75 -4.519,3.23 -8.285,5.509 -8.285,5.129 0,-2.09 5.2724,-12.538 9.9797,-19.758 2.8245,-4.56 5.0841,-9.31 5.0841,-10.829 0,-1.331 1.1297,-3.611 2.6361,-4.94 1.5065,-1.141 3.0128,-3.991 3.3893,-6.271 1.1298,-7.599 4.3309,-2.469 3.766,5.7 -0.5649,8.169 2.0713,15.769 5.2724,15.769 1.1296,0 5.4606,2.661 9.7914,5.701 4.1425,3.229 8.2851,5.699 9.0382,5.699 0.7532,0 8.2851,3.8 16.3818,8.36 36.7179,20.519 41.9903,22.798 41.9903,18.429 0,-2.66 -29.5626,-65.737 -50.2753,-107.345 -10.1681,-20.709 -9.0382,-23.751 5.6489,-15.58 27.303,15.008 98.6676,50.539 101.8686,50.539 2.0713,0 6.5904,-2.66 9.9797,-6.081 4.331,-4.37 6.7788,-5.509 8.2852,-3.991 1.318,1.332 -0.565,5.891 -6.5905,15.391 -4.7073,7.409 -8.6616,14.439 -8.6616,15.769 0,1.14 -1.8829,5.13 -3.9543,8.74 -4.8957,7.979 -7.1552,5.7 -5.8371,-6.08 0.9414,-9.5 -2.448,-13.87 -16.9467,-21.469 -4.3309,-2.47 -11.1097,-6.08 -14.6873,-8.36 -12.2393,-7.22 -34.8349,-18.618 -37.0945,-18.618 -3.201,0 -3.0127,3.609 0.565,10.448 1.5062,3.232 5.2723,11.21 8.285,18.05 2.8245,6.84 9.9798,22.229 15.817,34.388 5.8372,12.159 10.5446,22.99 10.5446,23.94 0,0.95 2.6361,5.888 6.0256,11.019 5.6487,8.739 5.8371,9.31 3.0127,14.059 -1.6948,2.661 -5.2724,9.5 -8.0968,15.01 -2.6361,5.32 -5.6489,9.879 -6.5904,9.879 -1.1297,0 -1.8831,-4.179 -1.8831,-9.309 z"
       id="path63"
       style="stroke-width:0.999999" />
    <path
       d="m 600.11951,22471.72 c -48.58064,-60.039 -45.94444,-54.909 -34.45833,-65.549 9.79144,-9.12 28.80943,-20.9 37.84765,-23.749 15.44036,-4.56 28.2446,3.04 33.14028,19.76 3.0127,10.07 3.20101,39.518 0.37662,53.198 -4.33086,21.659 -11.48611,41.419 -14.87544,41.419 -0.94153,0 -10.73297,-11.4 -22.03078,-25.079 z"
       id="path65"
       style="fill:#008000;stroke-width:0.999999" />
    <path
       d="m 1169.3412,22490.529 c -5.0839,-5.319 -7.1552,-14.06 -11.2979,-49.778 -6.967,-59.658 -8.4732,-114.945 -3.7659,-136.606 2.2597,-9.878 6.5903,-12.538 13.3691,-8.359 9.6032,5.7 13.934,16.719 23.3488,58.517 1.3181,5.889 2.6362,29.069 3.2011,52.819 0.7532,45.599 -1.5064,64.786 -9.4149,77.896 -5.6489,9.501 -9.9797,11.02 -15.4403,5.511 z"
       id="path67"
       style="fill:#008000;stroke-width:0.999999" />
    <path
       d="m 1778.2935,22449.87 c -1.5063,-0.76 -8.6616,-3.989 -16.0052,-7.22 -7.1553,-3.419 -18.6414,-8.55 -25.4201,-11.4 -6.7787,-2.849 -19.018,-8.358 -27.3031,-12.348 -8.285,-3.991 -22.0307,-10.261 -30.6923,-14.25 -36.153,-16.15 -94.1485,-47.119 -119.9452,-63.838 -23.5371,-15.39 -26.5498,-17.67 -40.8605,-32.49 -10.7329,-11.018 -12.8042,-14.057 -12.8042,-19.568 0,-3.42 0.9414,-7.029 2.2597,-7.789 1.318,-0.76 9.0382,-1.33 17.3232,-1.14 14.6871,0.189 28.6212,3.8 62.8913,16.528 13.1806,4.751 59.8784,29.069 82.0973,42.559 11.1096,6.84 23.1605,14.25 26.7383,16.34 6.5903,3.99 19.7712,13.109 63.8327,44.649 36.3412,25.838 37.2826,26.408 41.0487,29.067 3.0128,2.091 2.8245,3.041 -3.5777,12.35 -6.9669,9.88 -11.1095,11.78 -19.5829,8.55 z"
       id="path69"
       style="fill:#008000;stroke-width:0.999999" />
    <path
       d="m 1815.9529,22411.681 c -1.5064,-0.568 -13.3691,-8.74 -26.3616,-18.05 -12.9924,-9.498 -28.6211,-20.708 -34.8349,-25.078 -6.2137,-4.181 -17.135,-11.969 -24.4785,-17.099 -46.3212,-32.298 -63.8328,-43.698 -90.3826,-57.948 -8.2852,-4.559 -25.2319,-13.679 -37.6595,-20.519 -12.4275,-6.84 -29.3742,-15.96 -37.6593,-20.329 -8.2851,-4.369 -17.135,-9.12 -19.7713,-10.83 -2.636,-1.711 -11.8627,-6.84 -20.7126,-11.589 -39.919,-21.279 -46.6976,-24.89 -55.1709,-30.02 -4.8958,-3.04 -9.2267,-5.509 -9.7914,-5.509 -0.3767,0 -7.3437,-3.8 -15.2522,-8.55 -7.7201,-4.75 -14.6872,-8.55 -15.252,-8.55 -1.5065,0 -28.4329,-16.719 -48.2041,-29.828 -28.2445,-18.81 -31.4455,-27.358 -8.6616,-23.369 13.3691,2.28 16.9467,3.23 62.8911,17.099 45.568,13.87 50.6519,15.579 52.5349,17.289 1.1299,0.95 3.5777,1.71 5.649,1.71 2.2594,0 6.402,1.33 9.4148,2.85 2.8245,1.52 6.5904,2.85 8.0968,2.85 1.5062,0 5.4605,1.14 8.6616,2.66 5.6489,2.28 9.6032,3.988 28.6211,11.209 11.6745,4.369 27.868,10.83 32.0105,12.729 2.0713,0.761 10.1681,4.37 17.8883,7.599 13.934,6.081 93.3952,45.409 100.7388,49.969 2.0713,1.33 10.9213,6.65 19.5829,11.78 19.5828,11.78 19.018,11.4 35.9648,22.609 16.57,11.02 46.8859,33.439 56.6773,41.8 31.4456,26.978 39.354,34.767 39.354,37.617 0,1.711 -2.4479,6.84 -5.4606,11.4 -2.8245,4.559 -9.2266,14.248 -13.9339,21.85 -9.7915,15.009 -10.3563,15.769 -14.4989,14.248 z"
       id="path71"
       style="fill:#008000;stroke-width:0.999999" />
    <path
       d="m 531.95597,22381.663 c -6.59033,-11.021 -5.6489,-12.729 12.61596,-23.75 9.03822,-5.51 17.32331,-10.829 18.26475,-11.591 1.12983,-0.949 12.42764,-8.548 25.42011,-17.098 21.27755,-13.869 87.74643,-58.137 136.51527,-90.816 10.35636,-6.839 24.29036,-16.528 31.069,-21.47 32.38706,-23.558 52.53487,-35.337 69.48158,-40.849 4.89577,-1.708 7.72018,-1.518 12.61594,0.572 6.21373,2.66 6.40204,2.849 6.40204,13.868 0,13.111 -4.14255,27.74 -15.06374,52.629 -8.09678,18.81 -58.37208,117.417 -61.19648,120.264 -0.37662,0.382 -2.8245,-3.038 -5.4606,-7.598 -6.02551,-10.451 -16.75849,-20.898 -26.73815,-26.029 -9.97975,-5.32 -36.34139,-10.26 -47.63919,-9.121 -51.59335,5.32 -81.72082,17.86 -129.92484,53.389 -10.73299,7.979 -20.14782,14.439 -20.90105,14.439 -0.94144,0 -3.20101,-3.04 -5.4606,-6.839 z"
       id="path73"
       style="fill:#008000;stroke-width:0.999999" />
    <path
       d="m 2104.9888,22348.603 c -19.2063,-2.659 -39.5424,-16.338 -47.8274,-32.298 -5.2724,-10.26 -9.6032,-26.029 -9.6032,-34.96 0,-15.387 15.2521,-56.996 23.5371,-63.836 3.5777,-2.85 10.3562,-1.52 32.5754,6.65 15.0638,5.51 13.1808,5.7 25.985,-3.8 4.5191,-3.23 4.8958,0.57 1.1298,8.93 -8.0967,17.859 -9.7916,22.799 -9.7916,27.738 0,2.851 -0.7531,6.271 -1.6947,7.789 -2.636,3.991 -5.837,0.571 -5.837,-6.078 0,-8.55 -3.9543,-13.49 -13.5574,-16.341 -4.5192,-1.518 -10.733,-3.798 -13.7457,-5.319 -9.9798,-4.94 -14.3106,-2.85 -20.5245,9.88 -17.6999,35.908 0.3766,67.827 46.1328,81.317 13.5574,4.179 20.1477,3.99 32.952,-0.381 20.3361,-7.22 33.3286,-23.749 37.4712,-47.878 1.1296,-6.269 0.5648,-7.408 -8.2852,-16.529 -9.7915,-10.069 -9.9797,-14.059 -0.3767,-8.929 3.2012,1.519 7.1554,2.849 9.0384,2.849 5.8372,0 11.8627,5.51 11.8627,10.831 0,6.839 -5.6489,24.508 -11.2978,35.148 -17.3234,33.058 -46.3212,49.778 -78.1432,45.217 z"
       id="path75"
       style="stroke-width:0.999999" />
    <path
       d="m 510.49011,22345.184 c -1.50636,-1.71 -4.51906,-6.839 -6.59033,-11.019 -4.89578,-9.69 -4.70748,-9.88 16.57008,-25.27 8.85002,-6.268 17.69994,-12.918 19.77121,-14.628 2.07128,-1.521 25.0435,-19.19 50.84021,-38.949 25.98493,-19.759 52.15826,-40.089 58.37199,-45.028 31.25732,-24.509 51.02851,-39.71 56.30081,-43.319 5.4606,-3.801 22.03078,-9.12 35.02325,-11.589 2.63619,-0.38 6.40212,-1.522 8.4734,-2.47 3.57763,-1.52 56.1125,-15.2 58.37198,-15.2 0.56491,0 0.94153,1.33 0.94153,2.849 0,3.421 -20.33612,21.091 -48.58063,42.179 -12.05103,9.119 -26.73815,19.95 -32.38706,24.319 -5.6489,4.37 -20.33611,14.439 -32.57536,22.61 -12.23934,8.169 -23.16052,15.96 -24.47867,17.098 -2.07127,2.091 -9.79145,7.411 -16.7584,11.589 -3.01271,1.901 -12.61585,8.361 -49.52207,33.251 -10.35636,7.029 -21.65417,14.438 -25.2318,16.339 -3.38932,1.9 -7.72017,4.559 -9.41484,5.508 -3.3894,2.28 -22.40739,14.631 -32.19884,20.9 -3.57763,2.279 -10.54457,6.46 -15.25204,9.12 -8.285,4.75 -8.84992,4.75 -11.67442,1.71 z"
       id="path77"
       style="fill:#008000;stroke-width:0.999999" />
    <path
       d="m 1853.9889,22322.955 c -7.5319,-4.75 -14.4988,-8.55 -15.4403,-8.55 -0.9416,0 -2.8245,-1.139 -4.1426,-2.469 -1.318,-1.521 -9.6031,-6.46 -18.4531,-11.21 -28.2446,-15.01 -43.4966,-23.94 -56.4891,-33.25 -4.7074,-3.418 -11.4861,-8.359 -15.2521,-10.827 -9.4147,-6.461 -20.5242,-19.951 -20.5242,-25.08 0,-10.64 10.9211,-14.06 45.1913,-14.06 33.1401,0 73.0591,6.461 93.2069,14.82 13.5574,5.7 41.6136,21.089 43.1199,23.748 1.6948,2.661 0.1883,7.03 -6.5904,20.9 -4.7074,9.499 -9.603,19.569 -10.7329,22.229 -4.7074,10.449 -16.7584,31.159 -18.453,31.73 -0.9416,0.189 -7.9085,-3.421 -15.4404,-7.981 z"
       id="path79"
       style="fill:#008000;stroke-width:0.999999" />
    <path
       d="m 479.23289,22287.426 c -19.5829,-41.417 -20.33612,-44.268 -14.49891,-48.068 7.72018,-5.13 88.49956,-32.869 151.76731,-52.247 7.72017,-2.28 17.69993,-5.51 22.21909,-6.841 9.97976,-3.23 17.32332,-3.42 17.32332,-0.19 -0.18831,2.472 -22.21909,20.52 -42.36681,34.579 -7.15525,4.941 -16.19358,11.399 -19.7712,14.25 -7.72018,6.079 -83.03897,56.997 -84.16871,56.997 -0.37661,0 -4.70747,3.041 -9.41483,6.65 -12.23933,9.309 -14.31061,8.74 -21.08926,-5.13 z"
       id="path81"
       style="fill:#008000;stroke-width:0.999999" />
    <path
       d="m 1021.3399,22246.577 c 0,-0.76 9.6031,-21.089 21.4657,-45.217 25.6084,-52.438 38.7891,-80.177 38.7891,-81.508 0,-0.569 3.766,-9.309 8.4734,-19.379 4.7075,-9.879 8.4734,-18.809 8.4734,-19.76 0,-2.469 8.6618,-18.999 15.4404,-29.447 7.3435,-11.021 15.2521,-13.87 17.6999,-6.27 2.0713,6.65 1.3181,48.828 -1.1298,58.517 -1.1298,4.75 -2.8245,11.97 -3.5776,16.149 -2.6362,14.44 -11.6745,37.239 -20.9009,52.818 -13.3692,22.609 -43.8733,52.629 -68.9169,67.448 -10.7328,6.27 -15.8167,8.361 -15.8167,6.649 z"
       id="path83"
       style="fill:#008000;stroke-width:0.999999" />
    <path
       d="m 1912.9258,22218.079 c -10.5445,-1.709 -36.153,-7.22 -53.6646,-11.399 -42.3668,-10.07 -72.8709,-14.06 -137.4567,-17.669 -18.0766,-1.141 -37.0945,-2.661 -42.3669,-3.612 -5.0841,-0.95 -13.5572,-2.468 -18.8297,-3.039 -5.084,-0.57 -12.8042,-2.09 -16.9467,-3.039 -25.7967,-6.65 -31.2573,-8.17 -42.3668,-11.589 -6.7788,-1.901 -13.934,-4.371 -16.0053,-5.13 -2.0712,-0.95 -14.3104,-5.13 -27.303,-9.69 -12.9925,-4.371 -35.3997,-11.97 -49.8988,-16.91 -14.4987,-4.939 -31.4454,-10.638 -37.6593,-12.54 -15.6287,-4.749 -32.7637,-10.449 -39.5424,-13.299 -3.0127,-1.14 -8.6616,-3.419 -12.2392,-4.94 -28.4329,-11.02 -48.5806,-32.108 -55.9242,-58.707 -3.0128,-11.21 -3.0128,-16.72 0.1883,-28.88 5.2724,-19.569 10.5445,-26.029 29.3742,-35.907 7.7202,-3.991 10.733,-4.37 34.8349,-4.37 19.3946,0.189 28.6212,0.949 34.8351,3.229 4.7073,1.709 9.7914,3.231 11.2977,3.231 1.5065,0 7.9085,2.089 14.1223,4.749 6.2139,2.66 14.6871,6.269 18.8296,7.98 13.3692,5.699 56.1125,28.308 72.4946,38.378 3.5775,2.09 7.9084,4.37 9.4147,4.94 1.5064,0.759 5.4606,2.47 8.4733,4.18 19.2063,10.07 43.3084,22.04 54.6063,27.168 7.3435,3.421 19.2062,8.929 26.3614,12.35 7.3436,3.42 24.667,11.018 38.6009,16.909 13.934,5.891 27.1147,11.591 29.186,12.54 2.0713,0.95 16.9468,7.031 32.952,13.299 34.8349,13.87 41.802,16.72 51.7817,21.089 4.1424,1.71 11.2979,4.561 16.0052,6.08 4.7075,1.521 10.5447,3.801 13.1808,4.751 2.6361,1.141 14.8755,5.889 27.3031,10.83 12.4276,4.748 25.4201,10.068 28.8093,11.589 3.3894,1.329 7.3436,2.659 8.6619,2.659 1.5062,0 3.5775,1.33 5.0838,3.04 2.0713,2.47 1.6947,5.129 -2.0712,16.149 -4.5192,13.49 -7.3436,16.719 -14.1223,15.58 z"
       id="path85"
       style="fill:#008000;stroke-width:0.999999" />
    <path
       d="m 445.716,22201.93 c -2.63619,-3.61 -6.77873,-19.95 -5.64891,-22.8 0.75314,-2.28 35.39987,-24.319 38.03597,-24.319 0.75322,0 5.08407,-2.468 9.79145,-5.7 4.51916,-3.039 8.66171,-5.698 9.03822,-5.698 0.56492,0 11.86271,-6.461 25.4201,-14.251 13.55738,-7.789 38.03606,-21.279 54.22954,-29.638 16.19357,-8.36 30.88071,-15.96 32.38705,-16.91 2.6362,-1.709 46.88597,-22.8 55.54769,-26.599 2.07117,-0.95 7.72018,-3.42 12.61584,-5.511 4.89568,-2.279 9.60315,-3.988 10.73289,-3.988 0.94152,0 4.14255,-1.141 7.15535,-2.659 13.36907,-6.841 45.37953,-13.681 52.53477,-11.21 4.70748,1.518 5.4607,2.849 6.02552,10.068 0.94153,13.11 -8.28499,29.26 -34.08172,59.848 -28.80942,34.198 -30.12748,35.149 -48.95724,41.04 -34.45833,10.639 -62.89114,18.808 -78.5198,22.418 -3.57762,0.95 -13.36908,3.609 -21.65417,5.89 -8.285,2.28 -18.07644,4.939 -21.65407,5.89 -25.60841,6.08 -93.96025,23.75 -98.1028,25.459 -1.69466,0.57 -3.76593,0 -4.89568,-1.33 z"
       id="path87"
       style="fill:#008000;stroke-width:0.999999" />
    <path
       d="m 2218.1552,22150.063 c -0.5648,-1.711 -1.1298,-5.701 -1.1298,-8.741 0,-9.881 -4.7074,-11.399 -53.6646,-17.86 -12.4276,-1.709 -27.8679,-3.8 -34.0818,-4.749 -22.0307,-3.61 -29.5626,-1.901 -31.6338,6.651 -0.7532,2.659 -2.4479,4.748 -3.9543,4.748 -2.2595,0 -2.6361,-1.519 -1.8829,-7.029 0.5648,-3.99 2.2596,-15.2 3.5776,-24.89 2.6362,-18.808 5.8372,-25.648 7.5319,-16.719 0.7532,2.66 1.5063,7.03 2.0713,9.69 0.5649,2.849 2.6362,4.94 5.2722,5.509 21.466,4.371 37.2829,6.84 43.1201,6.84 7.7202,0 7.1552,0.95 10.9212,-22.8 2.8245,-18.999 2.6361,-19.757 -5.649,-25.648 -4.1424,-2.85 -7.5318,-6.079 -7.5318,-6.84 0,-2.469 10.3564,-1.709 27.303,1.71 14.1223,3.04 18.8297,6.27 10.9212,7.599 -10.168,1.71 -11.6743,2.661 -13.5573,8.36 -3.0127,9.69 -5.4605,34.39 -3.7659,37.81 1.6946,3.23 6.402,4.179 30.3157,6.648 12.0511,1.141 12.8043,0.951 14.499,-3.23 2.4478,-5.889 5.8372,-29.448 5.8372,-40.278 0,-7.789 -0.3767,-8.548 -7.5319,-11.969 -11.1095,-5.32 -9.9798,-9.119 2.4479,-7.409 17.8882,2.469 18.8297,3.23 17.3232,14.82 -0.5648,5.318 -1.8829,13.678 -3.0127,18.427 -0.9414,4.751 -3.3894,22.23 -5.4606,38.949 -3.7659,29.449 -5.8372,36.859 -8.2851,30.401 z"
       id="path89"
       style="stroke-width:0.999999" />
    <path
       d="m 1936.4629,22146.832 c -7.3436,-3.04 -51.405,-18.809 -55.5475,-19.95 -2.0713,-0.57 -10.5446,-3.609 -18.8297,-6.649 -19.2063,-7.22 -41.4254,-15.39 -49.8987,-18.43 -7.3437,-2.661 -51.97,-19.379 -67.7869,-25.458 -5.6489,-2.091 -11.1096,-4.75 -12.2393,-5.511 -0.9414,-0.759 -2.8244,-1.518 -4.3309,-1.518 -1.5063,0 -5.2723,-1.141 -8.4733,-2.662 -3.3893,-1.518 -15.8169,-6.84 -27.6796,-11.589 -66.0924,-27.359 -94.5252,-41.989 -101.8687,-52.627 -3.5777,-4.94 -3.7659,-5.89 -1.1297,-9.881 4.8956,-7.409 16.9467,-9.499 47.0741,-8.169 28.9978,1.33 84.3571,10.449 88.8762,14.818 0.9415,0.952 3.201,1.711 5.0839,1.711 6.2139,0 36.9063,11.211 49.8989,18.24 6.9669,3.8 14.1221,7.789 15.6285,8.549 2.4478,1.331 75.3188,45.218 85.6752,51.679 2.0712,1.139 9.2265,5.699 16.0052,9.878 17.1351,10.64 18.0765,11.21 32.952,20.14 7.3435,4.371 15.0637,9.499 17.135,11.589 4.1425,3.612 4.1425,3.8 0.9414,15.391 -1.8829,6.269 -4.1425,11.779 -5.0839,11.969 -0.9415,0.38 -3.766,-0.38 -6.4022,-1.52 z"
       id="path91"
       style="fill:#008000;stroke-width:0.999999" />
    <path
       d="m 427.45115,22138.282 c -2.44779,-9.12 -3.20101,-15.959 -1.69466,-18.238 4.33085,-7.221 77.76668,-72.957 102.99848,-92.529 16.75839,-12.918 27.67968,-21.658 49.33375,-39.328 7.15535,-5.89 9.60315,-7.599 27.49138,-20.709 40.48385,-29.447 100.7389,-67.067 131.6196,-82.265 43.12003,-21.09 70.42301,-26.601 82.47404,-16.151 7.34356,6.27 7.53187,11.59 0.37661,26.409 -6.02551,13.109 -26.73816,36.098 -47.4508,53.198 -7.53196,6.27 -14.87553,12.731 -16.57019,14.25 -5.83721,5.509 -68.72835,49.399 -70.79962,49.399 -0.37662,0 -4.51915,2.658 -9.03831,5.698 -4.70738,3.23 -8.84993,5.701 -9.60315,5.701 -0.56482,0 -8.4733,4.559 -17.51152,10.069 -9.03833,5.51 -20.71275,12.159 -25.98503,14.631 -5.08398,2.659 -12.61585,6.648 -16.57009,9.117 -8.09679,4.941 -77.57837,40.279 -79.27302,40.279 -0.56493,0 -11.67442,5.13 -24.47869,11.4 -12.99246,6.27 -24.10196,11.4 -25.04348,11.4 -0.75313,0 -5.6489,2.091 -10.9212,4.559 -16.7584,8.17 -35.21155,16.34 -36.71791,16.34 -0.94143,0 -2.07127,-1.521 -2.63619,-3.23 z"
       id="path93"
       style="fill:#008000;stroke-width:0.999999" />
    <path
       d="m 132.20157,22128.593 c -5.83721,-3.61 -8.47337,-8.931 -10.54464,-21.09 l -1.31807,-8.361 -20.524374,-3.609 c -34.458339,-5.699 -54.606118,-13.869 -62.137987,-24.699 -9.791448,-13.869 -6.213802,-31.919 7.531869,-38.759 10.356339,-4.938 41.425336,-4.938 45.191272,0.192 3.765944,5.129 1.506373,6.839 -6.966989,5.51 -9.038253,-1.522 -22.972229,2.089 -27.491351,7.219 -5.272318,5.89 -4.330833,17.29 1.694671,23.749 7.908472,8.36 38.035986,18.428 51.405069,17.289 l 7.53188,-0.57 -0.5649,-13.3 c -0.37659,-7.22 -1.50637,-16.718 -2.44785,-20.898 -4.70742,-20.71 -7.15529,-189.423 -2.82446,-196.263 0.94149,-1.711 3.57764,-0.76 8.84996,3.609 l 7.34359,5.89 v 42.369 c 0,23.368 0.56488,43.697 1.12977,45.408 0.94149,2.47 4.70744,3.04 21.27756,3.04 11.10952,0 20.90099,-0.57 21.65412,-1.33 0.56491,-0.761 -1.69467,-4.369 -5.2723,-7.98 -10.35631,-10.828 -16.19352,-23.748 -16.19352,-35.718 0,-25.839 19.39454,-39.518 44.24983,-31.729 13.18076,4.18 23.72535,13.11 29.18594,24.889 5.6489,11.97 5.46069,22.04 -0.56483,34.959 -8.09679,17.099 -8.28509,16.909 14.87544,16.909 h 19.7712 l 5.64891,6.081 c 9.60314,10.829 9.22653,11.019 -30.12758,11.019 h -35.77638 l -6.21381,8.169 c -13.93401,17.479 -16.19348,33.059 -5.83722,41.229 10.54467,8.359 19.20629,7.028 39.35411,-5.891 6.21382,-3.989 12.23923,-7.41 13.18077,-7.41 1.12973,0 4.33085,2.471 7.34356,5.702 5.08408,5.319 5.27228,5.889 2.07128,9.308 -6.02552,6.65 -27.67969,16.151 -39.35401,16.91 -5.8372,0.38 -11.86272,0 -13.18086,-0.95 -1.12975,-1.14 -4.51906,-2.47 -7.34357,-3.231 -2.8244,-0.569 -9.22653,-5.319 -14.49882,-10.448 -12.05104,-11.971 -13.55741,-18.62 -7.72017,-36.48 2.25948,-7.03 3.57762,-13.868 2.8244,-14.818 -0.56492,-1.33 -8.09675,-2.09 -17.88819,-2.09 -12.61589,0 -17.32332,0.76 -19.58289,3.04 -3.57764,3.418 -3.76594,12.919 -1.12977,32.108 1.12977,7.22 2.82444,25.268 3.76593,40.088 0.94149,14.82 2.44786,28.309 3.01275,30.209 1.12979,2.849 3.20105,3.041 13.74568,2.279 13.18079,-0.949 33.51684,-3.609 61.38483,-7.979 52.15827,-8.359 53.47631,-8.359 61.00817,-0.759 3.20103,3.23 5.83721,6.459 5.83721,7.22 0,1.899 -18.07654,5.699 -37.47104,7.79 -7.90847,0.949 -20.14781,2.659 -27.49137,3.609 -19.20629,3.041 -51.4051,7.6 -61.76142,8.93 l -9.22656,0.949 1.31809,16.151 c 1.31807,14.818 1.12977,15.959 -2.07127,15.769 -2.07127,0 -5.83721,-1.521 -8.66166,-3.23 z m 64.96247,-182.394 c 5.46059,-7.789 14.49882,-28.878 14.49882,-33.629 0,-5.889 -7.72018,-18.048 -13.18078,-20.898 -26.92646,-14.061 -41.80191,29.83 -18.45305,54.337 3.95424,4.181 8.28499,7.41 9.79145,7.41 1.31804,0 4.70736,-3.229 7.34356,-7.22 z"
       id="path95"
       style="stroke-width:0.999999" />
    <path
       d="m 756.97091,22113.203 c -0.56492,-0.95 0.75311,-3.609 3.20101,-6.269 14.49881,-15.77 78.7081,-109.436 100.92719,-146.866 12.61585,-21.658 21.27757,-32.298 26.92646,-32.868 8.285,-0.951 8.4733,5.7 1.50636,44.269 -8.47341,47.497 -23.53714,88.726 -41.04876,112.855 -7.72017,10.64 -9.79145,11.78 -31.44562,16.149 -16.75841,3.611 -33.32849,7.79 -45.94445,11.78 -9.79144,3.04 -12.80415,3.23 -14.12219,0.95 z"
       id="path97"
       style="fill:#008000;stroke-width:0.999999" />
    <path
       d="m 1948.7023,22077.295 c -1.1299,-0.95 -9.0382,-4.75 -17.8883,-8.741 -73.4358,-33.437 -120.51,-60.797 -120.51,-70.487 0,-7.599 4.3308,-7.79 50.8401,-3.04 10.9213,1.141 24.8552,2.85 31.0691,3.99 6.2139,0.95 23.5371,3.23 38.6008,4.751 37.8477,4.37 35.7765,3.799 35.7765,11.019 0,9.31 -5.2724,56.998 -6.5904,60.797 -1.318,3.421 -8.285,4.371 -11.2978,1.711 z"
       id="path99"
       style="fill:#008000;stroke-width:0.999999" />
    <path
       d="m 415.21192,22064.944 c -4.70748,-12.538 -9.60315,-102.595 -9.60315,-177.452 0,-59.468 0,-59.089 12.05093,-55.288 3.20111,0.949 10.54467,3.04 16.19358,4.749 9.22653,2.66 15.62866,4.181 39.54241,9.88 24.47857,6.08 77.38997,17.48 92.26549,19.95 45.37952,7.979 75.50709,16.148 84.35701,22.61 1.12974,0.948 2.25958,4.559 2.25958,7.789 0,9.119 -10.54468,18.428 -52.53487,45.598 -26.73816,17.479 -112.225,75.047 -122.58128,82.647 -5.6489,4.178 -16.00527,11.589 -22.97222,16.34 -6.96704,4.559 -15.44034,11.018 -18.82976,13.869 -3.38934,3.04 -9.03823,7.219 -12.23924,9.689 l -6.21383,4.18 z"
       id="path101"
       style="fill:#008000;stroke-width:0.999999" />
    <path
       d="m 929.07424,22037.966 c 0,-1.711 5.08407,-11.4 10.73298,-20.33 3.01271,-4.56 6.21382,-9.879 7.53187,-11.969 1.31805,-2.09 5.8372,-9.69 10.35636,-16.719 4.51907,-7.03 9.03823,-14.439 9.97966,-16.149 3.95425,-6.84 41.23709,-63.649 49.71049,-75.997 17.135,-25.08 23.7253,-31.16 27.4912,-25.08 4.3309,7.031 -15.6286,54.527 -36.1529,85.877 -10.35638,15.77 -9.79147,15.2 -24.29029,32.869 -15.25204,18.62 -42.93173,44.649 -47.63919,44.649 -1.12975,0 -2.07128,0.948 -2.07128,1.899 0,1.139 -1.31804,1.899 -2.8244,1.899 -1.50636,0 -2.8245,-0.379 -2.8245,-0.949 z"
       id="path103"
       style="fill:#008000;stroke-width:0.999999" />
    <path
       d="m 2233.9721,22016.877 c 0,-2.85 -2.2595,-7.22 -5.4606,-10.451 l -5.4606,-5.509 -42.1785,-0.189 c -46.3209,0 -52.5349,-1.141 -64.0209,-12.16 -9.7914,-9.501 -12.9926,-19.19 -12.9926,-40.659 0,-20.899 2.6362,-29.069 12.8043,-38.378 12.2393,-11.59 14.4987,-11.97 64.5858,-13.109 25.4201,-0.57 47.2625,-1.711 48.5806,-2.47 1.3181,-0.951 3.2011,-3.801 4.1425,-6.271 0.9415,-2.468 2.6363,-4.559 3.7659,-4.559 2.448,0 2.6363,41.228 0,42.748 -1.8829,1.14 -2.6361,-0.19 -4.5191,-8.739 -0.5647,-2.851 -2.636,-5.701 -4.3308,-6.46 -1.8829,-0.76 -19.9594,-2.091 -40.1072,-3.23 -45.5679,-2.279 -53.4763,-0.76 -65.3391,11.209 l -8.0967,7.98 v 16.719 c 0.1882,15.011 0.5649,17.481 5.2724,24.32 8.6615,12.538 17.3232,14.82 60.2549,15.768 42.7434,0.951 46.1328,0 51.5934,-12.348 1.883,-4.561 4.3308,-8.17 5.0841,-8.17 0.9414,0 1.5062,13.299 1.5062,29.449 -0.1882,22.989 -0.753,29.449 -2.636,29.449 -1.3182,0 -2.448,-2.09 -2.448,-4.94 z"
       id="path105"
       style="stroke-width:0.999999" />
    <path
       d="m 1830.0752,21970.328 c -21.654,-0.76 -56.8657,-1.9 -78.1432,-2.468 -21.2776,-0.762 -51.2169,-2.091 -66.8454,-3.041 -15.4403,-1.139 -43.4967,-2.851 -62.3263,-3.8 -52.7232,-2.85 -98.1028,-9.499 -113.1664,-16.528 -12.2394,-5.891 -9.9798,-14.062 5.6489,-20.521 4.3307,-1.709 9.2265,-3.99 10.9212,-4.749 11.486,-5.891 74.9421,-6.84 113.9196,-1.9 26.1732,3.419 65.1507,7.789 85.4868,9.5 10.9212,0.758 26.9264,2.469 35.7764,3.608 21.6541,2.662 50.8402,5.701 78.1433,7.79 12.4276,1.141 26.9264,2.661 32.0105,3.799 5.2722,0.951 15.4403,2.091 22.5955,2.662 19.3946,1.14 65.3391,5.13 70.0465,6.079 4.7074,0.95 7.1553,8.741 5.0841,16.719 l -1.1298,4.941 -49.3339,-0.38 c -26.9264,-0.19 -66.8453,-0.95 -88.6878,-1.711 z"
       id="path107"
       style="fill:#008000;stroke-width:0.999999" />
    <path
       d="m 1811.2455,21900.982 c -174.1747,-13.11 -189.2385,-15.011 -189.2385,-26.22 0,-5.509 2.448,-7.79 13.5574,-11.59 15.2521,-5.13 75.6954,-16.149 88.8761,-16.149 4.5193,0 10.5447,-0.759 13.5575,-1.899 3.0128,-0.951 13.934,-2.661 24.2903,-3.611 22.2191,-2.279 59.6902,-7.219 67.7869,-8.929 3.201,-0.76 12.8042,-1.901 21.6541,-2.851 14.8755,-1.518 35.5883,-3.609 90.7592,-9.498 12.2393,-1.33 22.5956,-1.901 23.1605,-1.521 0.3766,0.57 1.1298,19.76 1.318,42.749 l 0.565,41.609 -61.1965,0.189 c -35.7765,0.19 -75.3188,-0.759 -95.09,-2.279 z"
       id="path109"
       style="fill:#008000;stroke-width:0.999999" />
    <path
       d="m 2210.435,21858.233 c -1.5063,-2.47 2.2597,-5.51 6.7788,-5.51 1.5063,0 4.7073,-1.9 6.9669,-4.37 3.5777,-3.799 4.1426,-6.649 4.1426,-18.999 v -14.63 h -53.0998 c -29.3744,0 -54.4177,0.761 -55.5476,1.521 -1.3181,0.759 -4.3308,5.128 -6.5904,9.69 -3.9543,7.409 -8.4734,10.64 -7.9084,5.889 0.1882,-0.95 0.3766,-14.248 0.5649,-29.45 0,-16.908 0.9414,-27.548 2.0712,-27.548 1.1298,0 1.883,1.52 1.883,3.422 0,1.708 2.6361,6.458 5.8371,10.447 l 5.649,7.03 h 53.6647 53.4763 v -15.198 c 0,-16.91 -1.6947,-19.761 -13.5574,-23.94 -11.8627,-3.99 -8.4734,-6.461 8.6617,-6.461 h 16.1935 l -0.565,54.719 -0.3766,54.528 -13.5573,0.569 c -8.6617,0.38 -13.934,-0.188 -14.6872,-1.709 z"
       id="path111"
       style="stroke-width:0.999999" />
    <path
       d="m 608.96942,21845.124 c -6.77864,-0.951 -19.39459,-2.661 -28.2445,-3.801 -8.84992,-1.14 -18.45306,-2.849 -21.65418,-3.799 -3.01271,-0.76 -12.42754,-3.04 -20.71264,-4.94 -17.88824,-3.99 -53.85291,-15.39 -56.3008,-18.05 -1.12974,-0.949 -3.38933,-1.709 -5.08398,-1.709 -3.95424,0 -14.49891,-4.37 -48.95725,-20.519 -15.44035,-7.22 -20.33602,-10.45 -21.08926,-13.87 -0.75322,-2.47 -1.31804,-134.705 -1.31804,-293.728 0,-260.291 0.37661,-289.359 3.01271,-292.021 2.6362,-2.659 25.98503,-3.038 228.59255,-3.038 124.08763,0 227.08611,0.57 228.78076,1.139 4.89577,1.899 33.32859,42.37 46.13274,65.359 4.70747,8.739 17.13502,34.198 24.47868,50.347 8.09669,17.67 14.49882,37.999 23.16052,72.197 3.95414,15.198 8.28501,47.878 10.54458,76.947 2.63619,33.629 -2.25957,91.197 -10.54458,121.596 -8.6617,32.298 -8.4734,31.729 -16.57019,53.197 -10.73288,28.689 -34.08171,69.919 -53.09969,94.046 -43.12004,54.909 -108.27076,97.277 -171.35031,111.336 -36.90612,8.36 -86.99311,12.54 -109.77712,9.311 z"
       id="path113"
       style="fill:#008000;stroke-width:0.999999" />
    <path
       d="m 1583.4061,21817.385 c -27.303,-2.851 -67.4102,-11.59 -86.8048,-18.809 -37.6594,-14.06 -63.0795,-29.83 -86.8049,-53.958 -32.1988,-32.679 -49.8987,-69.728 -59.3135,-123.686 -5.2723,-30.018 -2.4479,-104.117 5.0839,-140.594 5.4607,-25.839 10.7331,-48.638 12.2394,-54.148 0.9415,-3.04 3.5775,-11.59 5.8372,-18.999 6.2138,-20.329 19.018,-55.288 28.0562,-75.997 5.8372,-13.491 19.2062,-42.179 20.7128,-44.648 0.9414,-1.521 3.0126,-5.321 4.519,-8.551 11.2979,-23.179 38.2244,-63.648 51.5935,-77.517 l 8.6615,-8.929 239.3255,0.38 239.1371,0.57 0.5649,284.229 c 0.3766,229.511 0,284.799 -2.0713,286.318 -2.0713,1.711 -34.4582,11.211 -54.0412,15.581 -3.5776,0.95 -13.3691,3.418 -21.6542,5.697 -8.2851,2.472 -18.8296,4.942 -23.5372,5.702 -4.7073,0.95 -11.8627,2.47 -16.0051,3.419 -19.9595,5.131 -56.8657,11.969 -88.4995,16.339 -11.2979,1.711 -27.1149,3.991 -34.835,5.13 -13.5574,2.09 -126.7239,3.991 -142.1643,2.471 z"
       id="path115"
       style="fill:#008000;stroke-width:0.999999" />
    <path
       d="m 115.25484,21762.857 -5.27231,-4.37 v -196.072 -195.883 l -6.96699,-4.941 c -5.837209,-3.799 -9.226549,-4.749 -19.582889,-4.749 -10.732923,0 -13.369076,0.759 -20.147769,5.701 -12.6159,9.118 -17.323318,25.838 -11.486119,40.278 3.954241,10.259 16.193537,25.837 26.173283,33.438 9.414845,7.221 11.862704,11.781 6.402088,11.781 -8.661658,0 -38.224272,-30.59 -44.814668,-46.359 -6.590395,-15.959 -2.82446,-41.799 7.53188,-50.728 13.74567,-11.97 36.717899,-12.351 51.969953,-1.14 10.544631,7.788 10.732931,6.459 11.297821,-49.399 0.37659,-36.858 1.12978,-50.917 2.82445,-50.917 1.12978,0 4.70743,2.279 7.90848,5.319 5.6489,4.94 5.83721,5.699 5.83721,21.279 0,15.58 0.18829,16.34 4.70741,18.05 5.46061,2.09 51.59336,1.71 55.171,-0.569 1.50635,-1.141 2.25958,-8.36 2.25958,-25.08 0,-21.469 -0.37662,-23.749 -3.57763,-25.649 -2.07128,-0.951 -14.1223,-1.9 -26.92647,-1.9 -21.46587,0 -23.91372,-0.38 -33.51686,-5.319 -13.55739,-6.841 -17.51163,-14.06 -16.19354,-29.83 0.75318,-10.26 1.50637,-11.969 7.90847,-17.479 16.94673,-15.009 40.29555,-2.091 48.76889,26.789 2.07128,7.41 2.63619,7.789 10.35637,8.358 9.79146,0.761 11.67441,-0.948 12.99246,-11.398 1.69467,-12.539 6.59044,-11.971 21.65417,2.849 16.19349,15.769 16.94671,24.7 2.07128,26.408 l -5.64891,0.571 -0.56492,26.03 -0.56491,26.028 8.6617,1.33 c 4.70738,0.571 14.68713,0.571 22.21901,-0.189 9.22661,-0.761 15.44033,-0.381 18.64146,0.949 5.8372,2.661 13.36907,12.54 11.86262,15.2 -0.75313,1.139 -26.73815,1.9 -68.72836,1.9 -64.96243,0 -67.78689,0.189 -69.66985,3.611 -2.63617,5.318 -2.44787,33.058 0.37658,35.906 1.69468,1.711 18.64141,2.28 64.58591,2.28 47.07417,0 63.07945,0.572 65.33903,2.471 4.33075,3.421 9.22653,11.97 7.72018,13.299 -0.56492,0.76 -30.88071,1.331 -67.41031,1.331 -49.89873,0 -66.84546,0.569 -69.29333,2.47 -3.01274,2.09 -3.20103,7.599 -2.82444,63.077 l 0.56489,60.797 25.04349,0.571 c 15.44038,0.38 24.85522,-0.189 24.85522,-1.331 0,-1.139 -4.33086,-6.079 -9.60315,-11.02 -22.40736,-21.089 -25.04351,-52.627 -6.21382,-71.435 10.35637,-10.45 22.78391,-13.11 35.77638,-7.791 33.14028,13.68 45.56793,56.808 24.10205,82.268 -3.38932,3.989 -5.64889,7.789 -5.08397,8.548 0.56482,0.572 9.79144,1.141 20.52433,1.141 h 19.20628 l 6.02552,7.599 c 3.20101,4.181 5.46059,8.361 4.70737,9.5 -0.75313,1.14 -24.8552,1.9 -68.54005,1.9 -55.73589,0 -67.9752,0.379 -69.66987,2.66 -1.50638,1.71 -2.07126,8.55 -1.69467,18.619 l 0.56489,15.77 32.95196,0.95 c 36.15303,0.95 39.16574,1.899 50.08702,13.679 9.79146,10.26 12.05094,16.91 12.05094,33.437 0,15.962 -4.70737,31.16 -10.35627,33.44 -3.76594,1.331 -3.57763,7.221 0.75313,12.73 8.28509,10.83 10.16806,17.289 10.35637,35.908 0.1883,14.63 -0.56492,19.189 -3.20102,23.56 -5.64891,8.549 -2.07128,10.639 17.51162,10.639 9.22654,0 17.88814,0.57 19.5828,1.14 4.33085,1.71 11.29791,14.06 9.22664,16.149 -0.94154,0.951 -32.01054,1.9 -70.23481,2.091 l -68.72838,0.569 -0.56489,13.87 c -0.5649,15.391 -2.63616,17.099 -12.05101,9.31 z m 79.83792,-49.207 c 16.7584,-23.751 18.45307,-46.55 4.89568,-63.079 -8.09669,-10.07 -11.29781,-9.12 -17.51162,5.7 -2.82441,6.84 -7.90848,15.389 -11.29781,18.999 -5.27229,5.509 -7.34357,6.459 -14.49884,6.459 -5.6489,0 -11.48612,-1.709 -17.32332,-4.939 -4.70742,-2.661 -9.41485,-4.369 -10.54462,-3.611 -2.07128,1.331 -2.63617,38.38 -0.7532,43.509 0.94149,2.661 5.64892,3.04 31.82219,3.04 h 30.88068 z m -41.04875,-49.4 c 2.63616,-1.139 6.0255,-3.99 7.72017,-6.46 3.57762,-5.509 10.35637,-23.558 10.35637,-27.547 0,-1.712 -4.33087,-7.981 -9.60317,-14.252 -5.08402,-6.077 -12.6159,-15.008 -16.38185,-19.567 -10.16802,-12.16 -15.62865,-17.292 -17.51161,-16.15 -0.94148,0.569 -1.69466,17.479 -1.69466,37.617 v 36.481 l 5.27231,4.938 c 7.90847,7.409 13.74567,8.74 21.84244,4.94 z m 42.93172,-37.049 c 5.46059,-6.459 14.68713,-28.688 14.68713,-35.718 0,-5.32 -1.31806,-8.361 -5.83721,-12.54 -5.83721,-5.509 -5.83721,-5.509 -30.69239,-5.509 -13.55737,0 -25.79667,0.76 -27.11474,1.711 -1.88299,1.139 -0.3766,3.987 5.64889,11.207 4.51914,5.511 14.49889,17.481 22.21907,26.791 7.72017,9.499 15.06373,17.1 16.19348,17.1 1.12983,0.188 3.38942,-1.331 4.89577,-3.042 z m 4.14255,-142.304 c 10.16796,-13.109 16.19348,-28.309 16.19348,-40.848 0,-11.779 -3.57763,-17.67 -13.36908,-21.468 -6.59034,-2.662 -8.09679,-2.662 -16.19348,0 -11.48611,3.798 -13.55738,5.698 -17.69992,15.008 -5.08409,11.019 -4.51917,25.649 0.94143,36.668 5.46069,10.259 15.06384,21.279 19.01798,21.279 1.50645,0 6.59043,-4.749 11.10959,-10.639 z m -46.13278,-263.71 c 5.6489,-6.84 -9.03826,-22.04 -21.27755,-22.04 -7.1553,0 -16.19354,6.651 -16.19354,11.782 0.18829,3.799 4.51911,8.738 9.60314,10.829 6.96698,2.85 25.42009,2.469 27.86795,-0.571 z"
       id="path117"
       style="stroke-width:0.999999" />
    <path
       d="m 2234.9136,21728.088 c -5.2723,-17.29 -6.967,-17.86 -57.8071,-17.86 -47.8275,0 -54.2295,-1.139 -62.3263,-11.969 -9.6031,-12.919 -11.1095,-18.049 -11.1095,-38.378 0,-21.279 2.8244,-30.02 13.3691,-39.899 11.2977,-10.83 19.3946,-12.35 65.339,-12.35 38.9775,0 41.9902,-0.19 46.5093,-3.799 2.6362,-2.09 5.084,-5.7 5.4607,-7.98 0.3766,-2.28 1.6946,-4.37 3.0127,-4.939 1.6946,-0.571 2.2596,4.749 2.2596,22.229 0,23.748 -2.0712,30.397 -5.649,17.288 -1.1297,-4.368 -3.7658,-8.549 -6.0255,-9.689 -2.636,-1.521 -18.6414,-2.28 -46.6976,-2.47 l -42.5551,-0.19 -7.7203,5.129 c -12.6158,8.361 -16.57,16.721 -16.1934,34.198 0.3766,12.922 1.1298,15.77 5.4606,21.472 9.6032,12.728 16.57,14.248 63.0794,14.248 40.1074,0 41.2372,-0.19 45.0031,-4.18 2.0712,-2.279 4.5191,-6.839 5.2723,-10.068 3.201,-12.162 5.0839,-4.752 5.6489,21.658 0.1882,16.529 -0.1884,28.119 -1.3181,29.259 -1.318,1.329 -2.2595,0.76 -3.0128,-1.71 z"
       id="path119"
       style="stroke-width:0.999999" />
    <path
       d="m 2105.5537,21566.404 c -0.3766,-0.951 -0.1884,-13.87 0.3765,-28.69 l 0.9416,-27.358 3.9541,5.51 c 2.0714,2.849 4.3309,6.84 5.0841,8.551 1.5063,4.37 9.9797,5.699 34.27,4.938 l 20.7127,-0.568 0.5647,-6.842 c 0.5651,-6.079 -0.3764,-7.599 -8.4731,-14.249 -4.8958,-3.989 -10.3565,-8.169 -12.2395,-9.31 -1.6946,-0.949 -9.6031,-6.459 -17.5116,-11.78 -7.7201,-5.508 -14.8754,-10.068 -15.6286,-10.068 -0.7531,0 -4.3308,-2.66 -7.7202,-5.699 -4.7073,-4.37 -6.0255,-6.84 -5.0839,-10.071 0.5648,-2.28 1.1297,-7.979 1.1297,-12.539 v -8.361 l 7.7201,8.74 c 4.1427,4.94 9.6032,9.88 12.0511,11.211 2.6361,1.329 12.9925,8.359 23.3488,15.388 10.7329,7.41 20.3362,12.73 22.2192,12.35 1.883,-0.38 4.3307,-3.23 5.2722,-6.27 3.201,-9.689 8.4734,-15.77 17.135,-20.139 6.7787,-3.23 10.3564,-3.799 18.2648,-2.66 11.4862,1.331 18.0765,6.27 23.7255,17.479 3.5776,7.41 3.9542,11.02 3.9542,48.829 0,40.657 -1.5064,50.538 -5.649,35.338 -1.1297,-4.37 -3.7658,-8.551 -6.2137,-9.88 -4.7075,-2.659 -79.6496,-4.749 -96.9729,-2.468 -8.2851,0.95 -11.2979,2.468 -15.6287,7.219 -3.0128,3.229 -5.4606,7.41 -5.4606,9.309 0,3.421 -3.0128,4.751 -4.1425,2.09 z m 123.5228,-37.808 c 6.0254,-2.279 2.8244,-33.249 -4.1426,-41.609 -3.3894,-4.179 -15.817,-10.449 -20.3361,-10.449 -1.5064,0 -6.2139,1.71 -10.3563,3.989 -9.0383,4.561 -12.616,11.78 -15.252,30.779 -2.8245,18.24 -2.4479,18.43 24.8552,18.43 12.2392,0 23.5371,-0.571 25.2318,-1.14 z"
       id="path121"
       style="stroke-width:0.999999" />
    <path
       d="m 2105.9302,21418.59 c -0.1882,-0.57 -0.1882,-23.939 -0.1882,-52.249 0,-28.117 0,-52.058 0.1882,-53.008 0,-2.468 10.5446,-3.988 19.7712,-2.659 10.168,1.33 10.733,3.231 2.0713,6.269 -11.8627,3.992 -12.6159,5.89 -12.0511,35.339 l 0.5649,26.409 h 27.3032 27.303 l 0.5647,-20.899 c 0.5651,-23.18 -0.3764,-29.448 -4.3306,-29.448 -1.3182,0 -5.0841,-2.09 -7.9085,-4.75 l -5.2724,-4.56 h 22.5957 22.5955 l -4.8956,4.181 c -2.6361,2.279 -6.5904,5.129 -8.4733,6.268 -3.2011,1.899 -3.5776,4.56 -3.5776,25.649 v 23.559 l 21.8424,0.57 c 17.1349,0.38 22.4073,-0.19 24.102,-2.28 1.5063,-1.709 2.0713,-10.64 1.6946,-27.929 l -0.5649,-25.458 -7.9084,-3.801 c -4.3309,-2.09 -7.7201,-4.559 -7.3437,-5.698 0.1883,-0.951 6.0256,-1.901 12.616,-1.901 h 12.0509 v 51.868 c 0,32.869 -0.7531,51.868 -1.8829,52.248 -0.9415,0.191 -2.0712,-2.47 -2.4478,-5.701 -0.3767,-3.797 -2.4479,-7.599 -5.4607,-10.068 -4.5191,-3.61 -7.5318,-3.801 -55.5476,-3.801 -28.8094,0 -52.1582,0.762 -54.0413,1.9 -1.8829,0.951 -5.2722,6.081 -7.5318,11.401 -3.5777,8.36 -5.6488,11.398 -5.8372,8.549 z"
       id="path123"
       style="stroke-width:0.999999" />
    <path
       d="m 2106.8718,21268.685 c -4.7075,-7.219 -4.5192,-42.558 0.1883,-54.338 4.7073,-11.589 7.9085,-15.579 16.57,-21.66 8.4734,-5.697 22.784,-6.649 33.7053,-2.089 5.6489,2.281 20.1476,19 20.1476,23.369 0,2.47 12.9926,27.358 16.0052,30.78 1.6948,1.899 6.0256,4.75 9.9799,6.459 6.7786,3.041 7.5317,3.041 15.252,-0.38 11.2978,-5.13 15.252,-11.969 15.252,-26.218 0,-13.679 -3.201,-18.619 -13.1806,-21.28 -9.7917,-2.28 -8.4735,-6.649 2.6361,-8.55 11.486,-1.899 14.3104,0.381 17.5115,14.44 5.649,24.129 -0.7531,46.929 -15.8169,57.378 -5.8372,3.99 -9.2265,4.75 -20.1477,4.75 h -13.1809 l -8.4734,-8.931 c -4.7073,-5.129 -13.1807,-17.858 -18.6413,-28.498 -12.9925,-24.699 -14.6871,-26.219 -28.9978,-26.028 -9.6031,0.189 -11.8627,0.759 -15.0636,4.749 -7.1553,9.12 -9.415,17.29 -8.4735,30.209 1.1298,14.06 3.9542,17.668 16.9467,20.898 4.3309,1.141 9.0384,2.471 10.5447,3.041 5.4606,1.899 -1.1298,4.18 -15.252,5.511 -14.1224,1.138 -14.499,1.138 -17.5116,-3.612 z"
       id="path125"
       style="stroke-width:0.999999" />
    <path
       d="m 1381.9285,21086.102 c -3.0128,-1.519 -7.1554,-2.66 -8.85,-2.849 -8.2851,-0.189 -31.2574,-13.49 -42.3669,-24.509 -13.7457,-13.49 -20.1477,-25.08 -24.4786,-44.839 -2.6361,-12.73 -2.8245,-16.148 -0.5648,-27.167 3.3892,-17.671 8.0968,-26.98 19.018,-39.14 12.8042,-14.061 27.8679,-23.938 69.6698,-45.408 38.4125,-19.57 49.3338,-26.979 59.8785,-40.468 l 6.7788,-8.931 v -19.189 c 0,-16.719 -0.5651,-20.329 -4.7075,-27.737 -16.3818,-30.02 -55.736,-42.94 -98.856,-32.3 -23.5371,5.89 -23.3488,5.509 -32.7636,44.649 -3.9543,15.768 -6.9669,25.649 -8.8499,27.549 -3.2011,3.229 -6.5905,-1.142 -7.3436,-10.641 -0.5649,-5.129 -2.0713,-16.908 -3.2012,-26.408 -1.318,-9.309 -2.2595,-23.56 -2.2595,-31.159 l -0.1882,-14.251 6.5903,-2.279 c 20.3361,-7.029 30.1276,-8.74 55.171,-9.69 60.0668,-2.28 96.2198,8.74 122.2048,36.86 4.7073,5.318 10.3562,12.919 12.6159,17.098 4.3308,8.74 9.603,32.298 9.4148,42.369 0,8.93 -4.1425,25.84 -8.0968,35.15 -4.3309,9.689 -25.9849,31.348 -37.8476,37.806 -23.1606,12.541 -26.9265,14.441 -37.6594,19.191 -42.1786,18.808 -60.82,31.538 -69.2934,47.497 -3.3893,6.27 -4.1426,10.64 -3.9542,23.75 0.1883,14.06 0.7532,17.478 5.6489,26.408 13.5574,25.079 39.3541,36.099 72.6827,30.78 16.3817,-2.66 29.3742,-7.22 32.7637,-11.781 0.9414,-1.52 4.3307,-9.879 7.3435,-18.808 7.7202,-23.75 12.4276,-34.39 14.8754,-33.63 2.2597,0.762 5.8372,59.848 4.1426,67.067 -1.1297,4.371 -12.2394,8.741 -38.4126,15.01 -15.6286,3.801 -61.0082,3.611 -69.1049,0 z"
       id="path127"
       style="stroke-width:0.999999" />
    <path
       d="m 1849.8463,21084.963 c -45.9444,-13.489 -73.4358,-45.978 -73.4358,-86.447 0,-26.789 12.9925,-49.397 38.9775,-67.827 5.4606,-3.8 27.6797,-16.15 49.522,-27.169 56.6775,-29.069 69.67,-42.179 69.67,-69.728 0,-23.18 -13.3691,-45.788 -32.0105,-53.958 -24.102,-10.45 -47.8273,-12.54 -72.1177,-6.459 -19.2063,5.13 -25.0435,8.359 -26.3616,14.82 -3.0127,17.479 -13.5573,53.387 -16.3819,56.426 -3.3892,3.422 -3.3892,3.422 -5.0839,0 -2.6363,-4.939 -6.0255,-37.807 -6.5905,-61.557 l -0.5648,-19.949 13.1808,-4.371 c 19.5829,-6.459 41.2369,-8.548 73.4358,-7.218 45.1913,1.899 70.4229,10.829 93.2069,33.438 9.9798,10.07 13.5574,15.199 18.6414,27.169 5.0841,12.731 6.0256,17.29 6.214,31.539 0.1882,31.919 -11.1097,53.197 -39.3542,72.767 -8.8499,6.27 -55.3592,30.02 -58.7487,30.02 -2.0712,0 -17.6998,8.549 -29.7509,16.529 -20.5243,13.298 -32.5754,34.958 -29.751,53.577 1.6948,11.019 9.2267,26.788 16.382,34.199 15.252,15.579 35.2115,21.28 62.138,17.48 30.6924,-4.371 33.3284,-6.461 41.237,-31.919 2.0713,-7.03 5.084,-15.201 6.5904,-18.048 1.5063,-2.662 2.6361,-6.271 2.6361,-7.793 0,-4.559 4.7075,-7.598 7.1554,-4.559 2.2595,2.851 5.2722,57.378 3.5776,64.408 -1.3181,5.32 -8.85,8.55 -35.7765,15.011 -20.336,4.939 -59.3135,4.748 -76.6369,-0.381 z"
       id="path129"
       style="stroke-width:0.999999" />
    <path
       d="m 400.9013,21081.163 c -0.56491,-1.52 -0.75312,-20.71 -0.56491,-42.558 0.56491,-37.999 0.75322,-39.899 4.14254,-39.899 3.01281,0 5.27239,4.18 11.29781,20.9 4.33085,11.589 8.85,22.799 9.97975,24.888 4.70746,8.36 12.80426,10.26 48.76894,10.64 l 33.70519,0.571 v -130.146 c 0,-112.096 -0.3766,-130.905 -2.82449,-135.845 -3.38932,-6.65 -19.20629,-15.768 -38.03596,-22.039 -12.05103,-3.8 -16.00527,-7.6 -10.35636,-9.88 1.50636,-0.568 18.64135,-0.189 38.22425,0.761 21.08926,0.95 50.46361,0.95 72.30608,0 20.14773,-1.141 37.28273,-1.329 38.03596,-0.95 3.76594,2.469 0.75323,6.269 -7.34356,9.119 -5.08399,1.9 -11.48611,4.559 -14.68713,5.888 -3.0128,1.333 -9.03832,3.992 -13.18086,5.702 -10.35628,4.37 -13.9339,10.068 -16.00518,26.028 -0.94153,7.6 -1.88296,66.499 -1.88296,130.906 0,102.786 0.37651,117.414 2.8244,119.505 2.25958,1.9 10.35637,2.089 35.02325,1.139 35.77637,-1.518 42.36681,-3.419 47.26249,-13.298 5.46069,-10.831 9.03832,-19.759 9.03832,-22.039 0,-1.14 2.07127,-6.84 4.70736,-12.54 3.57773,-7.599 5.64891,-10.259 8.09679,-9.879 2.8245,0.569 3.20112,4.37 3.76593,40.656 0.37662,33.82 0,40.47 -2.44788,42.561 -2.25948,1.899 -13.74559,1.899 -56.86562,0 -51.59334,-2.281 -122.58128,-1.901 -178.88209,1.138 -19.01798,1.141 -23.16052,0.95 -24.10206,-1.329 z"
       id="path131"
       style="stroke-width:0.999999" />
    <path
       d="m 901.20634,21079.453 c 0.37662,-3.61 3.95425,-5.32 22.03069,-11.399 14.87552,-4.941 22.40739,-8.359 24.66698,-11.4 5.6489,-7.599 8.09669,-122.545 4.70738,-224.761 l -1.31806,-45.219 -5.4606,-5.319 c -2.82449,-3.04 -7.72018,-5.891 -10.54467,-6.46 -2.8244,-0.381 -8.28509,-1.9 -11.86272,-3.23 -3.57763,-1.52 -10.16796,-3.8 -14.68713,-5.319 -5.64891,-1.9 -7.90848,-3.8 -7.53187,-5.89 0.56493,-2.28 2.6361,-3.041 9.03823,-2.661 29.18604,1.141 109.21233,0.949 123.89933,-0.38 16.1936,-1.33 17.3234,-1.139 17.3234,2.28 0,3.42 -5.4607,6.651 -17.8882,10.071 -9.4148,2.659 -25.6083,9.119 -28.2445,11.399 -4.8958,4.179 -6.40217,20.519 -7.5319,88.346 -1.31815,73.907 1.12973,175.363 4.3309,183.723 2.2594,5.51 12.0509,11.59 22.4073,13.869 3.3893,0.57 6.5904,2.091 7.1552,3.041 0.7532,0.948 3.3892,1.709 6.2138,1.709 6.2138,0 13.5574,4.751 13.5574,8.74 0,2.471 -3.201,2.66 -22.9722,1.33 -29.93927,-1.9 -79.64965,-1.9 -106.57611,0 -21.46587,1.71 -21.46587,1.71 -20.71265,-2.47 z"
       id="path133"
       style="stroke-width:0.999999" />
    <path
       d="m 109.79423,20596.491 c -3.20105,-1.138 -3.57765,-3.229 -3.57765,-16.529 0,-8.359 0.75319,-15.579 1.69467,-16.149 0.9415,-0.76 480.34554,-1.14 1065.19585,-1.14 849.031,0 1063.8777,0.571 1065.0076,2.279 1.6946,2.662 1.318,29.071 -0.5648,30.779 -1.5065,1.71 -2123.42484,2.281 -2127.75567,0.76 z"
       id="path135"
       style="stroke-width:0.999999" />
  </g>
</svg>
